<svg width="88" height="91" viewBox="0 0 88 91" fill="none" xmlns="http://www.w3.org/2000/svg">
<g clip-path="url(#clip0_3265_1266)">
<path fill-rule="evenodd" clip-rule="evenodd" d="M79.6928 90.8002C84.2465 90.8002 87.7495 87.2612 87.7495 82.6605V8.16301C87.7495 3.73878 84.2465 0.199707 79.6928 0.199707H8.93361C4.37941 0.199707 0.876953 3.73878 0.876953 8.16301V82.66C0.876953 87.2607 4.37941 90.7997 8.93361 90.7997H79.6928V90.8002Z" fill="#CC2131"/>
<path fill-rule="evenodd" clip-rule="evenodd" d="M79.6928 87.7915C82.4948 87.7915 84.7724 85.4919 84.7724 82.6605V8.16302C84.7724 5.33166 82.4953 3.20801 79.6928 3.20801H8.93356C6.13109 3.20801 3.85449 5.33166 3.85449 8.16302V82.66C3.85449 85.4909 6.13109 87.7909 8.93356 87.7909H79.6928V87.7915Z" fill="white"/>
<path fill-rule="evenodd" clip-rule="evenodd" d="M9.80861 63.3723H13.3116C16.2892 63.3723 17.6901 64.4339 17.6901 67.973V80.0051C17.6901 81.9523 16.2887 83.7221 14.0121 83.7221H9.80811V63.3723H9.80861ZM12.7862 81.2446H13.4867C14.1877 81.2446 14.5379 81.0677 14.5379 79.8297V67.2652C14.5379 66.0267 14.1877 65.8503 13.4867 65.8503H12.7862V81.2446ZM20.1429 83.7221V63.3723H26.7981V66.0267H23.1205V72.0423H26.6229V74.6978H23.1205V81.0677H26.9732V83.7221H20.1429ZM28.9 83.7221V63.3723H31.8776V81.0677H35.7308V83.7221H28.9ZM36.6064 83.7221V63.3723H39.584V72.0423H42.3865V63.3723H45.3641V83.7221H42.3865V74.6978H39.584V83.7221H36.6064ZM49.5676 63.3723H54.1213L56.3974 83.7216H53.2451L52.7193 78.2363H50.6178L49.9168 83.7216H47.2894L49.5676 63.3723ZM52.5447 75.5824L51.8437 67.0883H51.6685L50.9675 75.5824H52.5447ZM58.3252 63.3723H61.3023V83.7221H58.3252V63.3723ZM70.2346 63.3723V65.6724L66.2067 81.0677H70.2346V83.7221H63.0535V81.598L67.0824 66.0267H63.0535V63.3723H70.2346ZM72.1609 83.7221V63.3723H78.8166V66.0267H75.139V72.0423H78.642V74.6978H75.139V81.0677H78.8166V83.7221H72.1609Z" fill="#CC2131"/>
<path fill-rule="evenodd" clip-rule="evenodd" d="M15.2387 10.9943H22.7699L23.9958 9.22453H33.2788L39.0589 7.27832L37.3077 13.2949L39.5843 12.0559L40.2848 27.9815H72.3368V23.9121H45.7141L44.138 16.6565L45.7141 9.40146H77.7661V17.3648L73.7378 13.2949H48.8673L47.9917 16.6565L48.8673 20.1956H74.2636L77.7661 23.7347V36.8294L81.4442 50.9857L78.8168 58.4172H67.4323L68.8338 54.7017L72.687 53.6402L74.4383 50.2775L69.5348 45.4999L62.704 53.9935L62.003 58.4172H49.918L50.7936 54.7017L54.1215 53.6402L63.2289 38.4223L51.1434 43.7301H39.7594L36.6067 50.1011L39.9345 55.0551L39.0589 58.4172H26.448L27.1485 54.7017L31.0017 53.6402L27.6744 45.3225L19.968 55.0551L20.8436 58.4172H9.80884L10.685 54.7017L13.4874 53.1089L18.3914 45.6774L16.2894 38.7756L12.2616 40.7224L18.2162 24.7968L15.5889 21.0808L17.1655 19.134L21.0187 21.7885L24.1714 18.2494H14.1879L13.4874 20.0187L11.7362 19.6648L12.0859 16.834H23.6461L22.2446 15.0642L16.8153 15.9488L15.2387 10.9943Z" fill="#0C0E0F"/>
</g>
<defs>
<clipPath id="clip0_3265_1266">
<rect width="88" height="91" fill="white"/>
</clipPath>
</defs>
</svg>
