<svg width="68" height="68" viewBox="0 0 68 68" fill="none" xmlns="http://www.w3.org/2000/svg">
<path d="M58.344 14.7915C57.4876 12.098 56.3268 10.1694 56.2776 10.0884C56.0873 9.77469 55.6954 9.6115 55.3405 9.69291C55.2485 9.7139 53.0566 10.2255 50.5281 11.4883C47.1146 13.1925 44.7301 15.4677 43.6316 18.0668C42.7172 20.2313 42.5859 22.8773 43.2347 25.8006C41.8528 24.2573 40.2984 22.9074 38.6039 21.7708C38.0865 20.7487 36.7184 18.2321 34.5797 15.602C33.8752 14.7361 32.5201 15.8227 33.2318 16.6972C34.673 18.4699 35.7578 20.2132 36.4362 21.4108L28.5255 19.8687L21.0095 9.61693C21.7393 9.62706 22.4717 9.69762 23.2004 9.84054C25.5107 10.2928 27.7928 11.4695 29.9844 13.3373C30.843 14.0693 31.9582 12.737 31.1108 12.0151C28.6898 9.95198 26.1407 8.6465 23.534 8.13595C19.555 7.35729 14.9141 8.37947 10.1119 11.0932C6.53265 13.1158 4.13914 15.3375 4.03927 15.4308C3.71905 15.7301 3.66804 16.2735 3.93615 16.6231C4.28713 17.3431 5.61722 19.9407 7.83127 22.7373C9.13639 24.3862 10.5128 25.7973 11.9366 26.957C11.5321 27.296 11.1384 27.6506 10.7574 28.0237C8.72246 30.0141 7.16441 32.362 6.14151 34.9288C5.2373 37.1968 4.751 39.6366 4.72386 42.1514C4.67899 46.2636 5.8705 50.2296 8.1703 53.6214C10.4169 56.9343 13.5576 59.478 17.2526 60.9771C18.2867 61.3957 18.9406 59.7874 17.9057 59.3677C16.567 58.8245 15.3092 58.1287 14.1492 57.3012C14.2976 56.4784 14.6417 53.5172 12.6747 50.4518C12.3994 50.023 13.2226 48.339 13.7139 47.3331C14.2212 46.2965 14.7448 45.2248 14.9894 44.2156C15.2492 43.1435 14.9568 42.2436 14.1445 41.6122C13.5482 41.1487 12.7677 40.9088 12.0799 40.6972C11.633 40.5597 11.1265 40.4041 10.9455 40.2532C10.5729 39.9409 9.96426 38.7871 9.47507 37.8604C8.93232 36.8324 8.41562 35.854 7.88807 35.2516C9.07524 32.4322 10.9821 29.9374 13.3702 28.0287C15.5517 29.5148 18.0414 30.5402 20.6879 30.7479C17.6188 33.1258 16.6259 36.1627 18.045 39.0798C19.7022 42.4861 23.1132 41.9419 26.1226 41.4624C26.6432 41.3792 27.182 41.2935 27.698 41.229C27.8916 41.2048 27.9498 41.2576 27.9889 41.292C28.6478 41.8782 28.6282 44.6777 28.6141 46.722C28.595 49.5497 28.5769 52.2208 29.6302 53.5921C30.1675 54.2912 30.9241 54.6487 31.8109 54.6487C32.3424 54.6487 32.9199 54.5206 33.5256 54.2608C36.1449 53.1391 38.8677 49.7632 38.4523 47.0922C38.0894 44.7569 37.8492 43.2141 38.4154 41.9704C38.939 40.8195 40.2047 39.7539 42.6973 38.3941C42.9958 39.7383 43.1464 41.1368 43.1308 42.5714C43.0776 47.4685 41.1201 52.0518 37.6194 55.4765C33.7069 59.304 28.2082 61.1942 22.7688 60.5946C21.6605 60.4745 21.4691 62.199 22.5788 62.3213C28.5327 62.9769 34.5525 60.9072 38.8337 56.7183C42.6666 52.9687 44.8093 47.9515 44.8676 42.5899C44.945 35.481 41.2974 29.183 35.7447 25.5549C36.8921 24.7368 37.7468 24.0294 38.2208 23.6187C40.2452 25.0711 42.041 26.8604 43.535 28.9449C47.1214 33.9501 48.5438 40.0517 47.5408 46.1268C45.4693 58.6675 33.5821 67.1861 21.0392 65.1139C14.9637 64.1105 9.64296 60.802 6.05648 55.7967C2.46965 50.7919 1.04729 44.6896 2.05065 38.6148C2.23084 37.5217 0.518293 37.2348 0.337378 38.3319C-0.741965 44.8647 0.78822 51.4265 4.64426 56.8088C8.50102 62.1903 14.2234 65.7486 20.7562 66.8279C22.1225 67.0533 23.4902 67.1648 24.8486 67.1648C29.9829 67.1648 34.9777 65.5705 39.2339 62.5207C44.6169 58.6639 48.1755 52.9426 49.2541 46.4098C50.0447 41.6227 49.4328 36.8201 47.5325 32.4774C48.4096 32.2187 49.9021 31.7165 51.5369 30.9002C54.9497 29.196 57.3345 26.9208 58.4327 24.3218C59.5319 21.722 59.5011 18.4264 58.344 14.7915ZM7.93873 38.6709C8.58496 39.8961 9.1961 41.0539 9.83111 41.5851C10.2809 41.961 10.9068 42.1535 11.5693 42.3572C13.2667 42.879 13.4639 43.1352 13.3011 43.8064C13.1013 44.6317 12.6194 45.6173 12.1537 46.57C11.2567 48.4053 10.4097 50.1377 11.2126 51.3896C12.3513 53.1641 12.5463 54.911 12.5268 55.9976C7.35401 51.3332 5.24779 43.9659 7.17454 37.2699C7.43 37.7077 7.69848 38.2164 7.93873 38.6709ZM49.9564 21.6044L47.4883 15.6233C48.6893 14.5002 50.0827 13.655 51.2695 13.0598C52.2804 12.5525 53.2422 12.1733 54.0136 11.9044L49.9564 21.6044ZM55.6147 12.5778C55.9595 13.3188 56.3594 14.2744 56.7009 15.3545C57.0754 16.5398 57.4192 18.0089 57.4876 19.5412L51.7037 21.9275L55.6147 12.5778ZM45.2312 18.743C45.4874 18.1373 45.8185 17.5758 46.201 17.0573L49.0106 23.8651L46.4893 29.894C46.1351 29.1424 45.7179 28.1554 45.364 27.034C44.6538 24.7889 44.0546 21.5273 45.2312 18.743ZM50.7951 29.3288C49.8222 29.8172 48.8937 30.187 48.1375 30.4537L50.7539 24.1987L57.4137 21.4506C57.3171 22.1967 57.133 22.9363 56.833 23.6455C55.6567 26.4298 52.9003 28.2733 50.7951 29.3288ZM19.4797 28.8345C19.1729 28.7745 18.87 28.701 18.5715 28.6174L28.1832 21.5718L36.0975 23.1143C33.2145 25.3859 26.1982 30.1509 19.4797 28.8345ZM10.6955 23.4009C8.63996 21.1854 7.13329 18.8165 6.26816 17.2997L16.3397 19.2634L10.6955 23.4009ZM12.4743 11.814L16.6882 17.5617L6.55147 15.5857C7.82765 14.578 9.93423 13.0652 12.4743 11.814ZM19.2007 18.0516L14.092 11.0831C15.6215 10.4546 17.2631 9.95994 18.946 9.73995L26.0133 19.3791L19.2007 18.0516ZM18.6602 19.7156L25.8631 21.1195L16.6187 27.8956C14.8754 27.0905 13.3065 25.933 11.9337 24.6463L18.6602 19.7156ZM42.2255 36.6747C39.0946 38.3427 37.5615 39.6529 36.8342 41.2511C36.053 42.9673 36.3392 44.8094 36.7354 47.3588C36.9695 48.8622 35.1828 51.6617 32.8418 52.6644C31.9755 53.0352 31.3586 52.9915 31.0073 52.5337C30.3173 51.6357 30.3361 48.9176 30.3509 46.734C30.3716 43.7127 30.3896 41.1035 29.1431 39.9945C28.6948 39.5957 28.1213 39.4271 27.4841 39.5053C26.9381 39.5733 26.3842 39.6616 25.849 39.747C22.6566 40.2557 20.6477 40.4594 19.6071 38.3199C17.9209 34.8547 21.3341 32.2878 22.8798 31.3453C23.1946 31.1535 23.4866 30.9273 23.758 30.6755C27.4939 30.229 31.0239 28.6261 34.1697 26.6183C37.9414 28.8718 40.8368 32.438 42.2255 36.6747Z" fill="#1C2833"/>
</svg>
