<svg width="68" height="68" viewBox="0 0 68 68" fill="none" xmlns="http://www.w3.org/2000/svg">
<g clip-path="url(#clip0_3265_245)">
<path d="M46.5307 20.3986C46.0265 20.5047 45.7396 20.9809 45.8351 21.4322C45.8662 21.5969 45.9506 21.7565 46.0776 21.8822C46.4152 22.2263 46.9989 22.2212 47.3315 21.8822C47.9529 21.2666 47.3836 20.2331 46.5307 20.3986Z" fill="#1C2833"/>
<path d="M37.6172 27.082C37.3046 26.7081 36.7452 26.6561 36.3681 26.9656C36.0672 27.2124 35.7074 27.3727 35.329 27.4291L35.3064 27.4324C34.1405 27.6064 33.0488 26.8072 32.8736 25.6514C32.6984 24.4958 33.5049 23.4146 34.6721 23.2409L34.6924 23.2379C35.0728 23.1813 35.4639 23.23 35.8243 23.3783C36.2765 23.5644 36.796 23.352 36.984 22.9038C37.1719 22.4554 36.9574 21.9412 36.5049 21.755C35.4224 21.3097 34.5433 21.5011 34.4078 21.5028C32.2739 21.8203 30.7985 23.7983 31.1189 25.9125C31.5697 28.8868 35.1464 30.2504 37.4998 28.3195C37.8771 28.0099 37.9298 27.4558 37.6172 27.082Z" fill="#1C2833"/>
<path d="M14.0343 52.8947C13.4896 52.7877 12.9744 53.1999 12.9744 53.756C12.9744 54.2434 13.3722 54.6349 13.8616 54.6349C14.348 54.6349 14.7488 54.2431 14.7488 53.756C14.7488 53.3414 14.4586 52.9817 14.0343 52.8947Z" fill="#1C2833"/>
<path d="M23.4293 55.1713C22.9819 55.3693 22.781 55.889 22.9808 56.3322C23.1805 56.7753 23.7051 56.9742 24.1526 56.7765C25.6651 56.1073 27.368 57.324 27.163 58.9716C26.9571 60.6255 25.0017 61.3849 23.7047 60.3768C23.3193 60.0773 22.7615 60.1436 22.459 60.5258C22.1566 60.9077 22.2239 61.4602 22.6093 61.7597C24.9861 63.6076 28.5484 62.2056 28.9239 59.1869C29.3 56.1647 26.1766 53.9561 23.4293 55.1713Z" fill="#1C2833"/>
<path d="M52.8543 25.6205C53.2218 25.2244 53.5898 24.8032 53.9467 24.3663C54.8038 23.317 54.9642 21.812 54.25 20.571C53.6378 19.5076 48.4353 14.0863 40.2604 12.2215C36.5588 8.20441 31.1084 6.35964 25.7762 7.20081C25.0467 7.31601 24.4546 7.79449 24.1923 8.48097C23.9284 9.17191 24.0533 9.92414 24.5266 10.4932C25.124 11.2116 25.6488 11.9878 26.095 12.8091C19.4745 14.9089 13.7091 19.954 9.94615 25.7454C9.90759 25.8047 9.86926 25.8648 9.83081 25.9246C9.77829 26.0064 9.72589 26.0882 9.67372 26.171C9.61126 26.2699 9.54916 26.37 9.48729 26.4704C9.47108 26.4967 9.45464 26.5223 9.43855 26.5488C9.43631 26.5525 9.43465 26.5562 9.43252 26.5598C9.18044 26.9711 8.93214 27.3928 8.68964 27.8283C8.59394 28.0001 8.46003 28.1444 8.30223 28.2458L0.734196 33.1037C0.112921 33.5026 -0.148506 34.2386 0.0838211 34.9349C0.31603 35.6312 0.968298 36.069 1.70739 36.0218L8.20629 35.6144C8.95367 35.5683 9.68259 35.847 10.2037 36.3806L14.8662 41.1547C15.1635 41.4591 15.5575 41.6182 15.959 41.6181C16.901 41.6181 17.6643 40.7645 17.456 39.7902C15.7677 31.5539 15.5357 31.5916 15.8377 31.3417C16.7539 30.5838 18.2313 29.9306 20.2503 30.7963C19.8591 31.4756 19.3432 32.0824 18.7311 32.5738C17.8889 33.2498 18.1068 34.5854 19.1252 34.9635C20.097 35.3243 21.1491 35.5066 22.2612 35.4668C24.0834 35.4013 25.8182 34.7306 27.2029 33.57C29.9898 34.2015 33.1672 34.3874 35.9379 34.0296C36.4237 33.9669 36.7664 33.5259 36.7031 33.0445C36.6398 32.5631 36.1931 32.2234 35.7087 32.2866C31.29 32.8566 25.9184 31.9867 21.8799 29.6482C18.2889 27.5689 15.6629 29.1963 14.7006 29.9924C14.0961 30.4924 13.823 31.2824 13.988 32.0538L15.5412 39.318L11.4788 35.1584C10.5955 34.2539 9.36154 33.7798 8.09403 33.8602L2.24716 34.2267L9.26679 29.7206C9.66911 29.4623 10.0067 29.1014 10.2431 28.6771C10.4523 28.3012 10.666 27.9362 10.8828 27.5795C14.5508 24.4226 18.4341 22.0267 22.4271 20.4593C22.8827 20.2805 23.1055 19.7698 22.9251 19.3185C22.7446 18.8672 22.2289 18.6463 21.7736 18.8251C19.3523 19.7755 16.973 21.0134 14.6571 22.526C17.9057 18.9572 21.8244 16.3234 24.9491 15.0838C30.1027 13.0322 36.0101 12.6982 41.6022 14.4046C41.1235 15.3339 40.7223 16.339 40.4363 17.3027C38.3436 16.735 32.9303 15.6907 25.8497 17.505C25.3752 17.6266 25.0903 18.106 25.2129 18.576C25.3356 19.0458 25.8191 19.3282 26.294 19.2068C33.0075 17.4867 38.1917 18.5246 40.0255 19.0192C39.2936 22.9905 40.0025 27.2454 42.28 30.8931C41.4195 31.128 40.5513 31.3477 39.6919 31.5455C39.2146 31.6553 38.9175 32.1275 39.0284 32.6004C39.1393 33.0731 39.6159 33.3675 40.0932 33.2577C43.7156 32.4243 50.0167 30.5534 53.1493 28.6078C53.6785 28.2927 54.0135 27.7972 54.0463 27.2805C54.1085 26.301 53.1845 25.948 52.8543 25.6205ZM21.776 31.6975C22.677 32.1173 23.6742 32.5192 24.9881 32.9548C23.5607 33.7226 21.8913 33.9132 20.3445 33.5065C20.9049 32.9752 21.3882 32.3643 21.776 31.6975ZM27.8401 12.3204C27.302 11.2702 26.65 10.2824 25.8962 9.3757C25.8076 9.26917 25.8303 9.15925 25.8517 9.10324C25.8767 9.03796 25.9323 8.95617 26.0553 8.93671C30.0357 8.30882 34.0163 9.37675 37.0691 11.6938C34.0303 11.3791 30.8783 11.5792 27.8401 12.3204ZM51.6245 26.8997L52.04 27.2202C49.9725 28.4484 46.3751 29.6843 44.0568 30.3828C40.9644 25.7715 40.6889 19.8569 43.2984 14.9887C46.8139 16.3425 49.9494 18.4571 52.4896 21.1425C53.0427 21.7271 53.076 22.6378 52.5672 23.2607C52.2101 23.6978 51.83 24.1312 51.4377 24.549C50.7918 25.2363 50.8778 26.3241 51.6245 26.8997Z" fill="#1C2833"/>
<path d="M58.8587 42.5281L52.3598 42.9356C51.6132 42.9827 50.8836 42.7033 50.3624 42.1695L45.6998 37.3953C44.6374 36.3075 42.7924 37.2752 43.11 38.76C44.8107 47.0595 45.0382 46.9529 44.7227 47.2129C42.7893 48.8077 40.7448 47.922 40.7567 47.922C39.1487 47.3875 37.6524 45.8696 32.9417 44.8887C33.2928 44.0562 33.7202 43.2595 34.2199 42.5116C35.0935 41.2044 34.2055 39.4496 32.6308 39.3661C27.3148 39.0847 22.1603 41.4071 18.8885 45.678C14.4677 46.8078 10.2482 48.2491 6.32522 50.4526C3.43899 52.0721 3.67605 56.1816 6.55306 57.6174L6.67892 57.6822C5.57489 58.3563 5.57832 59.7168 6.5986 60.3873C9.53286 62.3154 13.1555 63.8374 16.3794 65.1106C23.4996 67.9385 31.5008 67.4749 37.6816 64.4865C40.3987 66.0691 43.6065 65.9438 46.0787 64.1844C46.9442 63.5691 46.8685 62.2025 45.9365 61.6637C45.2847 61.2869 44.6782 60.7858 44.1523 60.1938C44.9279 59.5306 45.7237 58.7899 46.5219 57.9629C46.8605 57.612 46.8479 57.0557 46.4939 56.7202C46.1397 56.385 45.5782 56.3974 45.2395 56.748C40.3269 61.8376 34.4904 64.9641 27.2155 65.2259C24.3844 65.3277 21.6173 64.9659 18.9584 64.152C21.0466 60.1067 21.3411 55.5119 20.0147 51.3845C29.1977 47.6089 39.3911 49.4423 40.254 49.6081C43.0314 50.5025 45.0422 49.2364 45.8577 48.5642C46.4673 48.062 46.7445 47.2748 46.5809 46.51L45.0248 39.2323L49.0872 43.392C49.9706 44.2966 51.2043 44.7693 52.4719 44.6902L58.3186 44.3237L51.2992 48.8296C50.1433 49.5716 50.3404 50.367 47.8453 53.6893C47.5527 54.0787 47.6345 54.6294 48.0275 54.9191C48.4206 55.2089 48.9764 55.128 49.2689 54.7385C50.2267 53.4631 51.1081 52.1043 51.8889 50.7001C52.1275 50.2708 51.8374 50.6329 59.832 45.4468C61.2125 44.5599 60.5092 42.4284 58.8587 42.5281ZM42.7779 61.3068C43.35 61.9592 44.0039 62.5257 44.709 62.9783C43.1871 63.9154 41.3433 64.0998 39.6015 63.4548C40.5389 62.9026 41.6203 62.1948 42.7779 61.3068ZM32.5359 41.1211C32.7441 41.1322 32.8553 41.3691 32.7404 41.5412C32.1049 42.4923 31.5724 43.5123 31.1524 44.582C27.4702 44.0878 24.8583 44.3833 21.8895 44.9854C22.9413 44.0015 28.233 40.8928 32.5359 41.1211ZM17.2667 63.5679C14.2226 62.4004 10.5667 60.8341 7.82127 59.0789C7.97222 58.9702 8.97546 58.7682 9.00977 57.7388C9.02692 57.2184 8.73675 56.7593 8.30628 56.5381C7.36372 56.0531 7.10714 55.9616 6.76598 55.6307C5.83052 54.7235 5.7657 53.1623 6.80668 52.2584C7.32409 51.8084 10.5193 50.1239 14.7847 48.7127C14.8521 48.6904 14.9194 48.6682 14.9871 48.6461C15.0566 48.6234 15.1261 48.6008 15.1959 48.5782C15.6292 48.4382 16.0677 48.302 16.5087 48.1693C19.6184 52.8147 19.8614 58.7343 17.2667 63.5679ZM19.3881 49.7381C19.0713 49.0231 18.7051 48.3282 18.2876 47.6594C24.0853 46.0789 29.1309 45.2645 35.1569 47.3109C29.9052 47.09 24.2859 47.7413 19.3881 49.7381Z" fill="#1C2833"/>
</g>
<defs>
<clipPath id="clip0_3265_245">
<rect width="60.566" height="60" fill="white" transform="translate(0 7)"/>
</clipPath>
</defs>
</svg>
