<svg width="123" height="109" viewBox="0 0 123 109" fill="none" xmlns="http://www.w3.org/2000/svg">
<g clip-path="url(#clip0_3266_17314)">
<path d="M72.7838 40.0205C72.5536 40.0205 72.3665 40.1789 72.3233 40.5964C72.2513 46.8011 66.0049 54.1288 66.0049 54.1288C66.0049 54.1288 68.0343 49.3061 68.0343 46.7723C68.0343 44.397 65.8897 43.1733 64.8966 43.1733C64.7095 43.1733 64.5944 43.2885 64.5944 43.5188C64.5944 43.7923 65.055 44.7425 65.055 46.1245C65.055 47.1035 64.9974 47.996 64.8966 48.8166C63.6301 50.501 61.2985 53.5673 60.3342 53.5673C60.1758 53.5673 60.0607 53.4522 60.0607 53.1786C60.0607 52.4444 61.9749 50.8753 61.9749 49.2341C61.9749 48.4711 61.2409 47.5929 60.4493 47.5929C60.0319 47.5929 59.6001 48.1256 59.1108 48.8598C58.0313 50.357 53.9438 55.6404 53.0227 55.6404C52.8643 55.6404 52.7492 55.5252 52.7492 55.2949C52.7492 53.8841 55.9732 48.2408 59.7585 46.6284C61.3704 45.9374 62.2916 46.2829 62.2916 45.7502C62.2916 45.2176 61.3273 44.1091 60.219 44.1091C56.4625 44.1091 52.6772 46.9883 50.8782 50.213C48.6185 53.3082 45.668 57.0512 44.8188 57.0512C44.5166 57.0512 44.2431 56.7777 44.2431 56.2882C44.2431 50.5441 52.4757 37.1989 52.4757 32.8369C52.4757 30.879 51.3675 29.7273 51.0509 29.7273C50.7486 29.7273 50.5903 30.0296 50.5903 30.5767C50.5183 35.3274 41.1631 47.2906 41.1631 54.028C41.1631 57.1376 43.2644 58.5916 44.6173 58.5916C46.1717 58.5916 48.1148 56.4898 49.7987 54.1864C49.9138 56.7777 51.5546 57.5263 52.706 57.5263C54.9657 57.5263 57.4124 52.3869 57.9881 52.3869C57.9881 53.265 58.9525 55.2229 60.6652 55.2229C61.6295 55.2229 63.1983 53.3226 64.3497 51.7534C63.9611 53.3946 63.5437 54.5607 63.5437 55.3813C63.5437 56.8065 64.4649 57.5695 65.0406 57.5695C65.386 57.5695 65.6595 57.3391 67.4585 55.1221C69.3296 52.7899 74.9284 47.305 74.9284 43.7779C74.9284 41.5609 73.4747 40.0205 72.7838 40.0205Z" fill="white"/>
<path d="M111.486 48.3415C111.371 48.3415 111.299 48.4567 111.14 48.6438C109.759 50.5585 105.887 55.6548 104.707 55.6548C104.477 55.6548 104.246 55.4676 104.246 55.0789C104.246 52.6604 106.161 50.213 106.161 48.3271C106.161 46.5708 103.167 44.8001 103.167 43.5764C103.699 42.655 104.664 40.9275 104.664 39.819C104.664 39.0848 104.131 38.365 103.44 38.365C102.519 38.365 100.72 40.5532 100.72 42.4679C100.72 43.1589 101.339 44.2242 101.684 44.6849C101.684 44.6849 100.533 46.758 99.0362 48.975C99.0074 49.0182 98.9786 49.0757 98.9354 49.1189C97.5393 51.0048 95.4956 53.8121 94.5888 53.8121C94.3585 53.8121 94.2866 53.6537 94.2866 53.3514C94.2866 51.8974 96.0425 49.0181 96.0425 47.6361C96.0425 46.9451 95.1933 45.8798 94.5888 45.8798C93.9699 45.8798 91.8686 49.4788 90.674 51.3215C89.4794 53.1642 88.3712 54.8918 87.7235 54.8918C87.5652 54.8918 87.4932 54.7766 87.4932 54.5463C87.4932 52.6316 91.5951 47.1467 91.5951 45.8798C91.5951 44.6129 90.3718 42.8566 89.1052 42.8566C87.2629 42.8566 85.2336 45.16 83.2761 46.1101C82.6285 46.4124 82.1679 46.614 82.1679 47.3338C82.1679 49.522 79.1742 54.9638 77.26 54.9638C76.9146 54.9638 76.6843 54.5751 76.6843 53.9992C76.6843 51.3935 79.2462 47.3626 81.549 46.2253C82.2399 45.8798 82.7724 45.7646 82.7724 45.4911C82.7724 44.9152 81.9664 44.0371 80.6711 44.0371C77.7925 44.0371 73.6187 48.6726 73.6187 53.4234C73.6187 54.7622 75.0435 56.3746 77.4903 56.3746C81.2036 56.3746 84.4995 50.3138 84.4995 47.8665C85.91 47.1323 87.9826 44.4114 89.0188 44.4114C89.1772 44.4114 89.2491 44.5697 89.2491 44.8001C89.2491 45.9086 84.773 51.048 84.773 54.0712C84.773 55.3813 86.1547 56.3314 87.5364 56.3314C89.2923 56.3314 90.9043 53.7977 91.5232 53.4234C91.7966 54.1576 93.2791 55.6836 94.2434 55.6836C96.7477 55.6836 98.9066 51.6526 99.9141 49.9251C101.713 47.1898 102.678 45.5775 102.678 45.5775C103.555 46.2685 103.671 46.3117 103.671 46.8011C103.671 48.6007 100.533 50.7889 100.533 53.9704C100.533 55.698 102.145 57.3391 104.289 57.3391C106.823 57.3391 110.536 51.7102 111.831 49.7955C112.018 49.4932 112.134 49.2629 112.134 49.0325C112.134 48.759 111.831 48.3415 111.486 48.3415Z" fill="white"/>
<path d="M55.311 68.3522H39.8101V68.7409H55.311V68.3522Z" fill="white"/>
<path d="M106.88 68.3522H91.3789V68.7409H106.88V68.3522Z" fill="white"/>
<path d="M55.311 69.2448H39.8101V69.8782H55.311V69.2448Z" fill="white"/>
<path d="M106.88 69.2448H91.3789V69.8782H106.88V69.2448Z" fill="white"/>
<path d="M45.38 8.03225C47.4814 6.89495 49.3956 7.61476 50.6622 9.93254C51.9287 12.2503 51.5977 14.2946 49.338 15.5326C47.1359 16.7275 45.2937 16.0077 44.0271 13.7043C42.7462 11.3722 43.2499 9.19834 45.38 8.03225ZM45.5096 8.39215C43.9983 9.21273 44.4445 10.5516 45.6823 12.7974C46.7905 14.8272 47.7404 15.9933 49.2085 15.2015C50.619 14.4385 50.2448 13.1141 49.0214 10.8827C47.8124 8.66568 46.9632 7.60036 45.5096 8.39215Z" fill="white"/>
<path d="M53.9291 8.88165L55.0517 12.4375L56.0016 12.1352L56.1024 12.4663L52.6194 13.5604L52.5186 13.2293L53.3534 12.9702L51.0937 5.77208L50.259 6.03121L50.1582 5.7001L53.1807 4.74996C55.21 4.11653 56.5486 3.95817 57.0523 5.58493C57.4841 6.93817 56.8076 7.62919 55.5843 8.13305L55.5986 8.16185C56.9372 7.91711 57.5992 8.20503 58.0022 9.51509L58.2469 10.2781C58.434 10.8539 58.5491 11.1131 58.9234 10.9979C59.2256 10.8971 59.24 10.6668 59.1392 9.8174L59.4127 9.78861C59.5566 10.7819 59.5998 11.473 58.506 11.8185C57.3114 12.1928 56.8076 11.8473 56.419 10.5948L56.0592 9.4431C55.8289 8.7089 55.4259 8.39218 54.5912 8.66571L53.9291 8.88165ZM53.8283 8.55054L54.1306 8.44977C55.282 8.08987 55.6706 7.44204 55.2532 6.14638C54.8502 4.85073 54.2169 4.76435 53.1231 5.12426L52.7921 5.22503L53.8283 8.55054Z" fill="white"/>
<path d="M61.6871 2.63367L61.7447 2.97918L60.9962 3.12314L62.3923 10.5372L63.1551 10.3932L63.2127 10.7243L59.9744 11.3433L59.9168 11.0122L60.6652 10.8683L59.2547 3.43985L58.5063 3.58381L58.4487 3.2527L61.6871 2.63367Z" fill="white"/>
<path d="M68.6675 9.24153L68.5667 7.28365L67.6456 7.32684L67.6312 6.98133L70.8552 6.82298L70.8695 7.16848L70.2651 7.19728L70.409 10.1917L70.1931 10.2061C70.1067 10.0333 69.9916 9.91815 69.7037 9.93255C69.2863 9.94694 68.4516 10.422 67.4297 10.4652C65.0405 10.5804 63.4717 9.38549 63.3278 6.52066C63.1838 3.68461 64.7958 2.11543 67.0987 2.00026C68.1493 1.94268 68.8402 2.27379 69.2288 2.25939C69.4015 2.245 69.4303 2.17302 69.4878 2.01466L69.7037 2.00026L69.9052 4.4908L69.6318 4.5052C69.1136 3.15196 68.2789 2.31698 67.1418 2.37456C65.7745 2.44654 65.0549 3.51186 65.1988 6.40549C65.3284 8.95361 66.12 10.1917 67.5017 10.1197C68.2213 10.0621 68.5667 9.7454 68.6675 9.24153Z" fill="white"/>
<path d="M75.2019 2.4034L75.1731 2.73451L74.4103 2.67693L73.777 10.1917L74.5398 10.2637L74.4966 10.5948L71.2295 10.3213L71.2583 9.97578L72.0211 10.0478L72.6544 2.51857L71.8916 2.46099L71.9203 2.11548L75.2019 2.4034Z" fill="white"/>
<path d="M81.2755 12.0056L80.2537 11.7753L77.6054 3.33911L76.0222 10.4364L76.7706 10.5948L76.6843 10.9259L74.7988 10.5084L74.8708 10.1773L75.6192 10.3356L77.2744 2.97921L76.526 2.80645L76.5979 2.47534L79.3757 3.09438L81.3907 9.63023L82.6141 4.17409L81.8656 4.00133L81.9376 3.67022L83.8374 4.10211L83.7655 4.43322L83.0171 4.26047L81.2755 12.0056Z" fill="white"/>
<path d="M86.4568 11.0122L84.1539 10.0764L82.47 11.9911L83.3335 12.3366L83.204 12.6534L81.2754 11.876L81.4049 11.5593L82.0526 11.8184L87.7521 5.59924L88.3566 5.84398L88.0831 14.2657L88.7308 14.5249L88.6013 14.8416L85.3485 13.5171L85.4781 13.2004L86.3128 13.5459L86.4568 11.0122ZM84.3986 9.81732L86.4855 10.6667L86.6439 7.34118L84.3986 9.81732Z" fill="white"/>
<path d="M95.8982 9.74534L95.7255 10.0333L94.6604 9.38544L90.7312 15.8349L91.2926 16.1804C92.6455 17.001 93.5954 16.6843 94.8188 15.5758L95.0634 15.7341L93.5234 17.9512L88.3564 14.7984L88.5292 14.5105L89.22 14.928L93.1492 8.47848L92.4584 8.06099L92.6311 7.77307L95.8982 9.74534Z" fill="white"/>
<path d="M59.6292 73.4196H56.3477V72.9445H57.3408V62.5217H56.3477V62.0466H59.989C63.1842 62.0466 65.0265 63.4862 65.0265 67.5316C65.0265 72.1239 62.7236 73.4196 59.6292 73.4196ZM59.8307 72.9589C62.004 72.9589 62.9107 71.3753 62.9107 67.5892C62.9107 63.4287 61.8745 62.5361 59.6148 62.5361H59.2982V72.9589H59.8307Z" fill="white"/>
<path d="M68.5093 69V73.0021H69.6751V73.4196H65.8179V73.0021H66.667V66.1208H65.8179V65.7033H68.5093V67.2149C68.7828 66.0632 69.416 65.5449 70.1789 65.5449C70.9705 65.5449 71.5174 66.1784 71.5174 67.2293C71.5174 68.1506 71.1432 68.6113 70.5819 68.6113C70.0637 68.6113 69.6751 68.2514 69.6751 67.4164C69.6751 67.2725 69.6895 67.1141 69.7183 66.9414H70.1213C70.1789 66.7974 70.1933 66.6822 70.1933 66.5814C70.1933 66.2791 70.0061 66.2071 69.8478 66.2071C69.1138 66.2071 68.5093 67.5316 68.5093 69Z" fill="white"/>
<path d="M74.5542 65.7032V73.0021H75.4178V73.4196H71.8628V73.0021H72.7119V66.1207H71.834V65.7032H74.5542ZM73.5611 61.8163C74.1944 61.8163 74.5974 62.205 74.5974 63.0544C74.5974 63.7742 74.2663 64.3068 73.5467 64.3068C72.7119 64.3068 72.496 63.6446 72.496 63.0544C72.4817 62.4065 72.8127 61.8163 73.5611 61.8163Z" fill="white"/>
<path d="M78.5269 65.7033V67.1573C78.8148 66.3511 79.3617 65.5305 80.657 65.5305C81.8516 65.5305 82.6288 66.2791 82.6288 68.237V72.9877H83.4924V73.4052H80.0381V72.9877H80.801V67.9923C80.801 66.711 80.5995 66.2935 80.0381 66.2935C79.2609 66.2935 78.5413 67.3588 78.5413 68.7697V72.9877H79.3185V73.4052H75.8643V72.9877H76.7134V66.1064H75.8643V65.6889H78.5269V65.7033Z" fill="white"/>
<path d="M87.9539 73.0022H88.7024L86.9896 69.4031L86.5435 69.5183V73.0022H87.2775V73.4196H83.852V73.0022H84.7012V61.6724H83.8232V61.2549H86.5435V69.0432L86.8889 68.928L89.4796 66.1208H88.4001V65.7033H91.0052V66.1208H90.0841L88.3425 68.0355L90.7317 73.0022H91.3074V73.4196H87.9683V73.0022H87.9539Z" fill="white"/>
<path fill-rule="evenodd" clip-rule="evenodd" d="M68.9697 87.4559C69.3151 87.4559 69.603 87.168 69.603 86.8225C69.603 86.477 69.3151 86.1891 68.9697 86.1891C68.6243 86.1891 68.3364 86.477 68.3364 86.8225C68.3364 87.168 68.6243 87.4559 68.9697 87.4559Z" fill="#263143"/>
<path fill-rule="evenodd" clip-rule="evenodd" d="M71.1719 89.8169C71.5173 89.8169 71.8051 89.529 71.8051 89.1835C71.8051 88.838 71.5173 88.55 71.1719 88.55C70.8264 88.55 70.5386 88.838 70.5386 89.1835C70.5386 89.529 70.8264 89.8169 71.1719 89.8169Z" fill="#263143"/>
<path d="M44.4304 89.9609C46.0568 91.0406 46.8052 92.0771 46.0136 93.2864C45.4235 94.1789 44.56 94.3229 43.4805 93.8334L43.4661 93.8478C44.5024 94.7548 44.8478 95.7625 44.2146 96.7127C43.2215 98.2099 41.7102 97.7636 39.9687 96.5975L37.4932 94.9707L37.6803 94.6972L38.3999 95.1723L42.4443 89.0539L41.7246 88.5788L41.9117 88.3053L44.4304 89.9609ZM39.8392 96.1224L40.2853 96.4247C41.3216 97.1157 41.9549 96.8422 42.6745 95.7481C43.351 94.7116 43.3222 94.0494 42.214 93.3152L41.8542 93.0704L39.8392 96.1224ZM42.0413 92.7825L42.2859 92.9409C43.2934 93.6031 43.8691 93.3584 44.5456 92.3362C45.2077 91.3285 45.1213 90.8102 44.1858 90.1912L43.8835 89.9896L42.0413 92.7825Z" fill="white"/>
<path d="M50.8496 99.5055L52.9653 94.8411L52.2745 94.5244L52.404 94.2221L54.1311 94.9995L54.0016 95.3018L53.3395 94.9995L51.267 99.5631C50.5617 101.118 49.5399 101.809 47.5249 100.902C45.8697 100.153 45.0349 99.0448 45.9129 97.1301L47.971 92.5666L47.2946 92.2642L47.4241 91.9619L50.389 93.3008L50.2595 93.6031L49.5255 93.272L47.3666 98.0227C46.8772 99.1024 46.8052 100.096 48.1294 100.686C49.2232 101.204 50.2307 100.873 50.8496 99.5055Z" fill="white"/>
<path d="M57.1676 95.8057C59.0531 96.3096 60.0893 97.0582 59.7295 98.4546C59.4561 99.4767 58.6789 99.8942 57.5131 99.7791V99.8079C58.794 100.341 59.4273 101.175 59.1394 102.284C58.6789 104.012 57.0957 104.069 55.0663 103.522L52.2021 102.759L52.2885 102.442L53.1233 102.658L55.0087 95.5754L54.1739 95.3594L54.2603 95.0427L57.1676 95.8057ZM54.764 103.09L55.2822 103.234C56.4912 103.551 56.9949 103.105 57.3403 101.838C57.657 100.643 57.4123 100.024 56.1314 99.6783L55.714 99.5631L54.764 103.09ZM55.7859 99.232L56.0738 99.304C57.2396 99.6063 57.7146 99.2032 58.0312 98.0083C58.3334 96.8422 58.0888 96.3816 57.0093 96.0936L56.6495 95.9929L55.7859 99.232Z" fill="white"/>
<path d="M63.846 97.087C65.7891 97.2885 66.9405 97.8644 66.7821 99.304C66.667 100.355 65.9762 100.888 64.796 100.96V100.988C66.1345 101.319 66.8973 102.054 66.7821 103.177C66.595 104.962 65.055 105.264 62.9537 105.034L60.0176 104.731L60.0464 104.4L60.8955 104.487L61.6583 97.1877L60.8092 97.1014L60.838 96.7703L63.846 97.087ZM62.6083 104.659L63.1408 104.717C64.3786 104.847 64.8103 104.314 64.9543 103.004C65.0838 101.78 64.7384 101.204 63.4286 101.06L62.9969 101.017L62.6083 104.659ZM63.0257 100.686L63.3279 100.715C64.5225 100.844 64.9255 100.355 65.055 99.1312C65.1846 97.9363 64.8535 97.5189 63.7453 97.4037L63.3855 97.3605L63.0257 100.686Z" fill="white"/>
<path d="M71.4164 97.2885L71.4308 97.6196L70.2218 97.6772L70.5385 105.005L71.1718 104.976C72.7118 104.904 73.3019 104.141 73.6905 102.572L73.9783 102.557L73.9352 105.178L68.0629 105.437L68.0485 105.106L68.8401 105.077L68.5091 97.7491L67.7175 97.7779L67.7031 97.4468L71.4164 97.2885Z" fill="white"/>
<path d="M79.7356 96.0648L80.2681 98.2099L80.0091 98.253C79.3182 96.799 78.6274 96.6119 77.2601 96.871L76.526 97.015L77.1737 100.369L77.6487 100.283C78.4547 100.125 78.7137 99.6207 78.6993 98.5841L78.944 98.541L79.5917 101.866L79.3182 101.924C78.8721 100.801 78.4978 100.499 77.6055 100.672L77.2313 100.744L77.9077 104.227L78.6993 104.069C80.225 103.781 80.8582 102.932 80.887 101.507L81.1173 101.463L81.5059 103.868L75.5186 105.019L75.461 104.688L76.2382 104.544L74.8421 97.3461L74.0649 97.49L74.0073 97.1589L79.7356 96.0648Z" fill="white"/>
<path d="M89.8104 95.0428L89.5513 95.1579C88.4287 93.6175 87.853 93.4304 86.7304 93.9055L86.5864 93.963L89.4218 100.729L90.3861 100.326L90.5156 100.628L87.0326 102.097L86.9031 101.795L87.8674 101.391L85.032 94.6253L84.8881 94.6828C83.7655 95.1579 83.5064 95.7482 83.823 97.5765L83.5496 97.6916L82.6572 95.2587L88.7309 92.7106L89.8104 95.0428Z" fill="white"/>
<path d="M93.9843 89.4714L95.2364 91.2853L95.0061 91.4293C93.8403 90.3064 93.1351 90.3784 91.9549 91.1126L91.3072 91.5157L93.1063 94.4237L93.5237 94.1646C94.2289 93.7327 94.2865 93.1712 93.8979 92.2067L94.1138 92.0771L95.8841 94.9564L95.6538 95.1003C94.8334 94.2078 94.3873 94.0638 93.6101 94.5389L93.2934 94.7404L95.1645 97.7636L95.8553 97.3317C97.1794 96.5112 97.4673 95.5034 96.9923 94.1646L97.1938 94.035L98.4028 96.1513L93.2071 99.3616L93.0343 99.0737L93.7108 98.6562L89.8536 92.4083L89.1771 92.8257L89.0044 92.5378L93.9843 89.4714Z" fill="white"/>
<path d="M101.008 90.6374L99.1803 92.2066L100.058 94.5244L100.749 93.9341L100.965 94.1933L99.425 95.5033L99.2091 95.2442L99.7272 94.8123L96.9351 87.1104L97.4244 86.6929L104.549 90.7094L105.067 90.2631L105.283 90.5222L102.678 92.7393L102.462 92.4801L103.138 91.9043L101.008 90.6374ZM99.0508 91.8755L100.72 90.4503L97.9282 88.8235L99.0508 91.8755Z" fill="white"/>
<path d="M33.0312 62.0611C33.06 61.9747 33.0744 61.8883 33.1032 61.8019C33.1176 61.7875 33.1176 61.7732 33.132 61.7588C33.132 61.7732 33.132 61.6292 33.1176 61.6436C33.1032 61.73 33.0744 61.9747 33.0312 62.0611Z" fill="white"/>
<path d="M19.1281 75.2048C18.279 75.2048 17.5737 75.8958 17.5737 76.7596C17.5737 77.609 18.2646 78.3144 19.1281 78.3144C19.9773 78.3144 20.6826 77.6234 20.6826 76.7596C20.6826 75.8958 19.9773 75.2048 19.1281 75.2048Z" fill="#F4BC49"/>
<path d="M20.999 82.0862C20.999 82.9355 21.6899 83.6409 22.5534 83.6409C23.4026 83.6409 24.1078 82.9499 24.1078 82.0862C24.1078 81.2368 23.417 80.5314 22.5534 80.5314C21.7043 80.5314 20.999 81.2368 20.999 82.0862Z" fill="#E52820"/>
<path d="M29.4909 80.0707C28.6418 80.0707 27.9365 80.7617 27.9365 81.6255C27.9365 82.4748 28.6274 83.1802 29.4909 83.1802C30.3401 83.1802 31.0453 82.4892 31.0453 81.6255C31.0453 80.7761 30.3401 80.0707 29.4909 80.0707Z" fill="white"/>
<path d="M28.5698 71.8648C28.5698 71.0155 27.8789 70.3101 27.0153 70.3101C26.1662 70.3101 25.4609 71.0011 25.4609 71.8648C25.4609 72.7142 26.1518 73.4196 27.0153 73.4196C27.8789 73.4052 28.5698 72.7142 28.5698 71.8648Z" fill="#F4BC49"/>
<path fill-rule="evenodd" clip-rule="evenodd" d="M21.1574 73.3189C22.0066 73.3189 22.7119 72.6279 22.7119 71.7641C22.7119 70.9148 22.021 70.2094 21.1574 70.2094C20.3083 70.2094 19.603 70.9004 19.603 71.7641C19.6174 72.6279 20.3083 73.3189 21.1574 73.3189Z" fill="#E52820"/>
<path fill-rule="evenodd" clip-rule="evenodd" d="M25.2595 78.6599C26.1087 78.6599 26.8139 77.9688 26.8139 77.1051C26.8139 76.2557 26.1231 75.5503 25.2595 75.5503C24.4103 75.5503 23.7051 76.2413 23.7051 77.1051C23.7195 77.9544 24.4103 78.6599 25.2595 78.6599Z" fill="white"/>
<path fill-rule="evenodd" clip-rule="evenodd" d="M21.6467 90.3495C19.79 90.1768 18.4227 89.5577 17.8758 88.5644C17.8758 88.5644 17.8758 88.55 17.8614 88.55C17.3864 87.571 18.5379 86.405 19.1711 85.9731C19.6461 85.642 20.5097 85.7859 19.862 86.5201C19.6893 86.7217 19.5453 86.9088 19.459 87.0816C19.3438 87.2975 19.3151 87.4847 19.3438 87.6286C19.4878 88.1469 20.4089 88.4924 21.805 88.6364C23.4602 88.7947 25.6479 88.5932 27.9795 87.9741H27.9939C28.0226 87.9597 28.0514 87.9597 28.0946 87.9454H28.109C29.6058 87.5423 30.9588 87.0384 32.0958 86.4625C32.1821 86.4194 32.2685 86.3762 32.3405 86.333C32.3405 86.333 32.3548 86.333 32.3548 86.3186C33.3336 85.8867 32.9737 86.8656 32.4124 87.2975C30.1672 89.0683 24.6835 90.6374 21.6467 90.3495ZM19.3726 59.1962C17.6887 56.5185 16.0047 53.8121 14.8245 51.9262C14.7382 51.7966 14.5799 51.739 14.4215 51.7966C12.2339 52.6316 10.3484 53.6105 8.89475 54.6326C6.96613 56.0003 5.87228 57.3535 6.05939 58.39C6.05939 58.4188 6.07378 58.4476 6.08817 58.462C6.14574 58.606 6.21771 58.7499 6.28967 58.8939C6.30406 58.9227 6.31845 58.9371 6.33285 58.9515C6.92295 59.7289 8.4054 60.2327 10.4492 60.4343C12.8383 60.6646 15.8896 60.4343 19.1711 59.6857C19.2863 59.6569 19.3582 59.5849 19.4014 59.4841C19.4446 59.3978 19.4302 59.297 19.3726 59.1962ZM20.9127 49.9827C23.6761 49.4644 26.2092 49.3205 28.2529 49.522C30.6133 49.7523 32.2253 50.3858 32.5707 51.3935C32.5851 51.4223 32.5851 51.4511 32.5851 51.4799L32.6283 51.9549C32.6283 51.9837 32.6283 51.9981 32.6283 52.0269C32.4988 52.9915 31.4625 54.172 29.7786 55.3524C27.6772 56.8352 24.626 58.2317 21.0854 59.225C20.9414 59.2682 20.7831 59.2106 20.7112 59.0667L16.4221 51.5375C16.3646 51.4511 16.3646 51.3503 16.4077 51.2495C16.4509 51.1488 16.5229 51.0912 16.6236 51.048C17.113 50.8896 17.6167 50.7457 18.1205 50.6161H18.1349C18.1636 50.6161 18.1924 50.6017 18.2212 50.5873H18.2356C18.5235 50.5153 18.8113 50.4434 19.0992 50.3714C19.2431 50.3426 19.387 50.4002 19.459 50.5297L21.8194 54.6902C21.9057 54.8486 22.0929 54.9062 22.2512 54.8198C22.4095 54.7478 22.4815 54.5463 22.4095 54.3879C21.8338 53.0922 21.2581 51.7678 20.6536 50.4577C20.6104 50.357 20.6104 50.2562 20.668 50.1698C20.7255 50.0547 20.8119 49.9971 20.9127 49.9827ZM20.0059 48.3991C23.1435 47.7657 26.0796 47.5785 28.4256 47.7945C31.592 48.0968 33.7941 49.2053 34.2835 51.0336C34.3554 51.3359 34.3842 51.6382 34.3698 51.9406C34.3698 51.9549 34.3698 51.9693 34.3698 51.9837C34.8016 57.3535 34.7872 62.8097 34.7872 68.1362C34.7872 68.0211 34.6577 68.9136 34.1252 68.4673L32.9737 55.626C32.9593 55.4964 32.8874 55.3956 32.7578 55.338C32.6283 55.2949 32.4988 55.3237 32.4124 55.41C31.9519 55.8563 31.4049 56.3026 30.786 56.7345C28.6415 58.2461 25.6191 59.6569 22.1216 60.6934C22.0209 60.7222 21.9489 60.7942 21.9057 60.895C21.8626 60.9957 21.877 61.0965 21.9201 61.1829L25.8493 68.093C26.166 68.6545 25.4464 68.8272 25.1297 68.3666C25.0002 68.1794 23.014 65.0123 20.6968 61.3268C20.6248 61.1973 20.4809 61.1397 20.3369 61.1829C16.5661 62.1186 13.0111 62.421 10.2621 62.1618C9.49924 62.0898 8.77961 61.9603 8.14633 61.8019C8.01679 61.7731 7.90165 61.8019 7.8153 61.9027C7.72894 62.0035 7.71455 62.133 7.75773 62.2482C10.6507 68.8992 14.623 78.6022 16.0911 83.0219C16.2782 83.5977 15.7169 83.7849 15.4722 83.2522L4.79283 59.7721C4.79283 59.7577 4.77844 59.7433 4.77844 59.7289C4.62012 59.4841 4.50497 59.2106 4.43301 58.9227V58.9083V58.8939C3.97244 57.08 5.33975 55.0357 7.93044 53.2218C9.3841 52.1997 11.2552 51.2063 13.3997 50.357C13.5004 50.3138 13.558 50.2418 13.5868 50.1554C13.6156 50.0547 13.6012 49.9683 13.558 49.8819L13.3133 49.4932C13.3133 49.4932 13.3133 49.4788 13.2989 49.4788L9.24017 42.3383C8.88035 41.7049 8.95232 40.9563 9.36971 40.2509C9.68635 39.7038 10.2189 39.1712 10.9097 38.7681C10.9097 38.7681 10.9241 38.7681 10.9241 38.7537C10.9529 38.7249 10.9961 38.7105 11.0393 38.6961C11.0393 38.6961 11.0537 38.6961 11.0537 38.6817C11.7445 38.3074 12.4785 38.1202 13.1118 38.1202C13.9178 38.1346 14.5943 38.437 14.9541 39.056L14.9685 39.0704C16.6236 41.9928 18.1924 45.088 19.6461 48.1976C19.7037 48.3559 19.8476 48.4279 20.0059 48.3991ZM17.7463 48.9318L17.7894 48.9174C17.8758 48.903 17.9478 48.8742 18.0341 48.8598C18.1349 48.831 18.2212 48.759 18.2644 48.6726C18.3076 48.5719 18.2932 48.4711 18.25 48.3847L13.4572 39.963C13.4284 39.9054 13.2845 39.8766 13.083 39.8766C12.7232 39.8766 12.2626 39.9917 11.8165 40.2509C11.3703 40.51 11.0393 40.8267 10.8522 41.1434C10.7514 41.3162 10.7082 41.4601 10.737 41.5033C10.7514 41.5177 10.7946 41.5321 10.8665 41.5609C11.0393 41.6041 11.2695 41.6041 11.5286 41.5465C11.615 41.5321 11.7157 41.5177 11.8021 41.5321C11.8165 41.5321 11.8309 41.5321 11.8453 41.5465C12.1763 41.6329 12.4497 42.0504 12.2051 42.3383C12.1187 42.4247 11.9748 42.5111 11.7877 42.5974C11.7013 42.6406 11.6294 42.6982 11.6006 42.799C11.5718 42.8998 11.5718 42.9861 11.6294 43.0725L15.2419 49.4356C15.3139 49.5796 15.4866 49.6372 15.6305 49.594C16.307 49.3348 17.0122 49.1189 17.7463 48.9318Z" fill="white"/>
<path d="M62.3059 22.4429C62.3203 22.7308 62.1044 23.0619 61.8165 23.0907C61.4135 23.1195 59.5137 22.6732 55.4981 22.9467C37.7663 24.1416 32.6569 33.5279 32.9736 38.1059C32.988 38.3506 32.8728 38.5234 32.5994 38.5378C31.8653 38.581 30.239 37.2277 30.0519 34.6364C29.7208 29.6985 36.2119 22.2989 50.3887 21.3344C60.2046 20.6721 62.2915 22.0398 62.3059 22.4429ZM46.1285 40.9131C46.1429 41.1579 46.0421 41.2874 45.9126 41.2874C45.6823 41.3018 45.4089 40.8987 44.1135 40.9995C42.775 41.1003 40.6449 42.2664 38.6011 43.562C35.9529 52.3005 34.6431 64.3789 34.931 68.3954C34.9598 68.7553 34.1969 69.0145 33.9667 69.0288C33.3766 69.072 32.3115 65.9337 32.038 62.1619C31.8222 59.1099 32.7001 52.79 34.1394 46.2973C33.6788 46.5133 33.3334 46.6572 33.1319 46.6716C31.2752 46.8012 29.8216 44.6274 29.7208 43.2453C29.692 42.7703 29.836 42.6407 30.2677 42.5975C31.6782 42.4967 33.4629 42.0073 35.3196 41.3306C35.3196 41.3306 35.3628 41.3306 35.3484 41.2731C37.8383 31.9443 39.4791 27.8558 41.0191 21.3056C41.2925 20.1971 41.4221 19.7652 41.8107 19.7364C42.6023 19.6788 43.9264 21.5647 44.0416 23.3066C44.3006 26.9633 42.6167 30.9942 39.7669 39.7471C41.2782 39.2144 42.6311 38.8113 43.5666 38.7537C44.7324 38.6673 46.0565 40.0206 46.1285 40.9131Z" fill="#E52820"/>
<path d="M31.0881 73.6644C30.2389 73.6644 29.5337 74.3554 29.5337 75.2192C29.5337 76.0686 30.2245 76.774 31.0881 76.774C31.9373 76.774 32.6425 76.083 32.6425 75.2192C32.6281 74.3554 31.9373 73.6644 31.0881 73.6644Z" fill="#E52820"/>
<path d="M68.9987 108.143C98.8149 108.143 122.986 83.9666 122.986 54.1432C122.986 24.3198 98.8149 0.143188 68.9987 0.143188C39.1825 0.143188 15.0117 24.3198 15.0117 54.1432C15.0117 83.9666 39.1825 108.143 68.9987 108.143Z" fill="#263143"/>
<path d="M30.8906 95.1761C45.2437 93.1845 54.8605 77.0142 52.3704 59.0587C49.8802 41.1031 36.226 28.1617 21.8729 30.1532C7.51978 32.1447 -2.09705 48.315 0.393107 66.2706C2.88326 84.2261 16.5374 97.1676 30.8906 95.1761Z" fill="#263143"/>
<path d="M72.7838 40.0205C72.5536 40.0205 72.3665 40.1789 72.3233 40.5964C72.2513 46.8011 66.0049 54.1288 66.0049 54.1288C66.0049 54.1288 68.0343 49.3061 68.0343 46.7723C68.0343 44.397 65.8897 43.1733 64.8966 43.1733C64.7095 43.1733 64.5944 43.2885 64.5944 43.5188C64.5944 43.7923 65.055 44.7425 65.055 46.1245C65.055 47.1035 64.9974 47.996 64.8966 48.8166C63.6301 50.501 61.2985 53.5673 60.3342 53.5673C60.1758 53.5673 60.0607 53.4522 60.0607 53.1786C60.0607 52.4444 61.9749 50.8753 61.9749 49.2341C61.9749 48.4711 61.2409 47.5929 60.4493 47.5929C60.0319 47.5929 59.6001 48.1256 59.1108 48.8598C58.0313 50.357 53.9438 55.6404 53.0227 55.6404C52.8643 55.6404 52.7492 55.5252 52.7492 55.2949C52.7492 53.8841 55.9732 48.2408 59.7585 46.6284C61.3704 45.9374 62.2916 46.2829 62.2916 45.7502C62.2916 45.2176 61.3273 44.1091 60.219 44.1091C56.4625 44.1091 52.6772 46.9883 50.8782 50.213C48.6185 53.3082 45.668 57.0512 44.8188 57.0512C44.5166 57.0512 44.2431 56.7777 44.2431 56.2882C44.2431 50.5441 52.4757 37.1989 52.4757 32.8369C52.4757 30.879 51.3675 29.7273 51.0509 29.7273C50.7486 29.7273 50.5903 30.0296 50.5903 30.5767C50.5183 35.3274 41.1631 47.2906 41.1631 54.028C41.1631 57.1376 43.2644 58.5916 44.6173 58.5916C46.1717 58.5916 48.1148 56.4898 49.7987 54.1864C49.9138 56.7777 51.5546 57.5263 52.706 57.5263C54.9657 57.5263 57.4124 52.3869 57.9881 52.3869C57.9881 53.265 58.9525 55.2229 60.6652 55.2229C61.6295 55.2229 63.1983 53.3226 64.3497 51.7534C63.9611 53.3946 63.5437 54.5607 63.5437 55.3813C63.5437 56.8065 64.4649 57.5695 65.0406 57.5695C65.386 57.5695 65.6595 57.3391 67.4585 55.1221C69.3296 52.7899 74.9284 47.305 74.9284 43.7779C74.9284 41.5609 73.4747 40.0205 72.7838 40.0205Z" fill="white"/>
<path d="M111.486 48.3415C111.371 48.3415 111.299 48.4567 111.14 48.6438C109.759 50.5585 105.887 55.6548 104.707 55.6548C104.477 55.6548 104.246 55.4676 104.246 55.0789C104.246 52.6604 106.161 50.213 106.161 48.3271C106.161 46.5708 103.167 44.8001 103.167 43.5764C103.699 42.655 104.664 40.9275 104.664 39.819C104.664 39.0848 104.131 38.365 103.44 38.365C102.519 38.365 100.72 40.5532 100.72 42.4679C100.72 43.1589 101.339 44.2242 101.684 44.6849C101.684 44.6849 100.533 46.758 99.0362 48.975C99.0074 49.0182 98.9786 49.0757 98.9354 49.1189C97.5393 51.0048 95.4956 53.8121 94.5888 53.8121C94.3585 53.8121 94.2866 53.6537 94.2866 53.3514C94.2866 51.8974 96.0425 49.0181 96.0425 47.6361C96.0425 46.9451 95.1933 45.8798 94.5888 45.8798C93.9699 45.8798 91.8686 49.4788 90.674 51.3215C89.4794 53.1642 88.3712 54.8918 87.7235 54.8918C87.5652 54.8918 87.4932 54.7766 87.4932 54.5463C87.4932 52.6316 91.5951 47.1467 91.5951 45.8798C91.5951 44.6129 90.3718 42.8566 89.1052 42.8566C87.2629 42.8566 85.2336 45.16 83.2761 46.1101C82.6285 46.4124 82.1679 46.614 82.1679 47.3338C82.1679 49.522 79.1742 54.9638 77.26 54.9638C76.9146 54.9638 76.6843 54.5751 76.6843 53.9992C76.6843 51.3935 79.2462 47.3626 81.549 46.2253C82.2399 45.8798 82.7724 45.7646 82.7724 45.4911C82.7724 44.9152 81.9664 44.0371 80.6711 44.0371C77.7925 44.0371 73.6187 48.6726 73.6187 53.4234C73.6187 54.7622 75.0435 56.3746 77.4903 56.3746C81.2036 56.3746 84.4995 50.3138 84.4995 47.8665C85.91 47.1323 87.9826 44.4114 89.0188 44.4114C89.1772 44.4114 89.2491 44.5697 89.2491 44.8001C89.2491 45.9086 84.773 51.048 84.773 54.0712C84.773 55.3813 86.1547 56.3314 87.5364 56.3314C89.2923 56.3314 90.9043 53.7977 91.5232 53.4234C91.7966 54.1576 93.2791 55.6836 94.2434 55.6836C96.7477 55.6836 98.9066 51.6526 99.9141 49.9251C101.713 47.1898 102.678 45.5775 102.678 45.5775C103.555 46.2685 103.671 46.3117 103.671 46.8011C103.671 48.6007 100.533 50.7889 100.533 53.9704C100.533 55.698 102.145 57.3391 104.289 57.3391C106.823 57.3391 110.536 51.7102 111.831 49.7955C112.018 49.4932 112.134 49.2629 112.134 49.0325C112.134 48.759 111.831 48.3415 111.486 48.3415Z" fill="white"/>
<path d="M55.311 68.3522H39.8101V68.7409H55.311V68.3522Z" fill="white"/>
<path d="M106.88 68.3522H91.3789V68.7409H106.88V68.3522Z" fill="white"/>
<path d="M55.311 69.2448H39.8101V69.8782H55.311V69.2448Z" fill="white"/>
<path d="M106.88 69.2448H91.3789V69.8782H106.88V69.2448Z" fill="white"/>
<path d="M45.38 8.03225C47.4814 6.89495 49.3956 7.61476 50.6622 9.93254C51.9287 12.2503 51.5977 14.2946 49.338 15.5326C47.1359 16.7275 45.2937 16.0077 44.0271 13.7043C42.7462 11.3722 43.2499 9.19834 45.38 8.03225ZM45.5096 8.39215C43.9983 9.21273 44.4445 10.5516 45.6823 12.7974C46.7905 14.8272 47.7404 15.9933 49.2085 15.2015C50.619 14.4385 50.2448 13.1141 49.0214 10.8827C47.8124 8.66568 46.9632 7.60036 45.5096 8.39215Z" fill="white"/>
<path d="M53.9291 8.88165L55.0517 12.4375L56.0016 12.1352L56.1024 12.4663L52.6194 13.5604L52.5186 13.2293L53.3534 12.9702L51.0937 5.77208L50.259 6.03121L50.1582 5.7001L53.1807 4.74996C55.21 4.11653 56.5486 3.95817 57.0523 5.58493C57.4841 6.93817 56.8076 7.62919 55.5843 8.13305L55.5986 8.16185C56.9372 7.91711 57.5992 8.20503 58.0022 9.51509L58.2469 10.2781C58.434 10.8539 58.5491 11.1131 58.9234 10.9979C59.2256 10.8971 59.24 10.6668 59.1392 9.8174L59.4127 9.78861C59.5566 10.7819 59.5998 11.473 58.506 11.8185C57.3114 12.1928 56.8076 11.8473 56.419 10.5948L56.0592 9.4431C55.8289 8.7089 55.4259 8.39218 54.5912 8.66571L53.9291 8.88165ZM53.8283 8.55054L54.1306 8.44977C55.282 8.08987 55.6706 7.44204 55.2532 6.14638C54.8502 4.85073 54.2169 4.76435 53.1231 5.12426L52.7921 5.22503L53.8283 8.55054Z" fill="white"/>
<path d="M61.6871 2.63367L61.7447 2.97918L60.9962 3.12314L62.3923 10.5372L63.1551 10.3932L63.2127 10.7243L59.9744 11.3433L59.9168 11.0122L60.6652 10.8683L59.2547 3.43985L58.5063 3.58381L58.4487 3.2527L61.6871 2.63367Z" fill="white"/>
<path d="M68.6675 9.24153L68.5667 7.28365L67.6456 7.32684L67.6312 6.98133L70.8552 6.82298L70.8695 7.16848L70.2651 7.19728L70.409 10.1917L70.1931 10.2061C70.1067 10.0333 69.9916 9.91815 69.7037 9.93255C69.2863 9.94694 68.4516 10.422 67.4297 10.4652C65.0405 10.5804 63.4717 9.38549 63.3278 6.52066C63.1838 3.68461 64.7958 2.11543 67.0987 2.00026C68.1493 1.94268 68.8402 2.27379 69.2288 2.25939C69.4015 2.245 69.4303 2.17302 69.4878 2.01466L69.7037 2.00026L69.9052 4.4908L69.6318 4.5052C69.1136 3.15196 68.2789 2.31698 67.1418 2.37456C65.7745 2.44654 65.0549 3.51186 65.1988 6.40549C65.3284 8.95361 66.12 10.1917 67.5017 10.1197C68.2213 10.0621 68.5667 9.7454 68.6675 9.24153Z" fill="white"/>
<path d="M75.2019 2.4034L75.1731 2.73451L74.4103 2.67693L73.777 10.1917L74.5398 10.2637L74.4966 10.5948L71.2295 10.3213L71.2583 9.97578L72.0211 10.0478L72.6544 2.51857L71.8916 2.46099L71.9203 2.11548L75.2019 2.4034Z" fill="white"/>
<path d="M81.2755 12.0056L80.2537 11.7753L77.6054 3.33911L76.0222 10.4364L76.7706 10.5948L76.6843 10.9259L74.7988 10.5084L74.8708 10.1773L75.6192 10.3356L77.2744 2.97921L76.526 2.80645L76.5979 2.47534L79.3757 3.09438L81.3907 9.63023L82.6141 4.17409L81.8656 4.00133L81.9376 3.67022L83.8374 4.10211L83.7655 4.43322L83.0171 4.26047L81.2755 12.0056Z" fill="white"/>
<path d="M86.4568 11.0122L84.1539 10.0764L82.47 11.9911L83.3335 12.3366L83.204 12.6534L81.2754 11.876L81.4049 11.5593L82.0526 11.8184L87.7521 5.59924L88.3566 5.84398L88.0831 14.2657L88.7308 14.5249L88.6013 14.8416L85.3485 13.5171L85.4781 13.2004L86.3128 13.5459L86.4568 11.0122ZM84.3986 9.81732L86.4855 10.6667L86.6439 7.34118L84.3986 9.81732Z" fill="white"/>
<path d="M95.8982 9.74534L95.7255 10.0333L94.6604 9.38544L90.7312 15.8349L91.2926 16.1804C92.6455 17.001 93.5954 16.6843 94.8188 15.5758L95.0634 15.7341L93.5234 17.9512L88.3564 14.7984L88.5292 14.5105L89.22 14.928L93.1492 8.47848L92.4584 8.06099L92.6311 7.77307L95.8982 9.74534Z" fill="white"/>
<path d="M59.6292 73.4196H56.3477V72.9445H57.3408V62.5217H56.3477V62.0466H59.989C63.1842 62.0466 65.0265 63.4862 65.0265 67.5316C65.0265 72.1239 62.7236 73.4196 59.6292 73.4196ZM59.8307 72.9589C62.004 72.9589 62.9107 71.3753 62.9107 67.5892C62.9107 63.4287 61.8745 62.5361 59.6148 62.5361H59.2982V72.9589H59.8307Z" fill="white"/>
<path d="M68.5093 69V73.0021H69.6751V73.4196H65.8179V73.0021H66.667V66.1208H65.8179V65.7033H68.5093V67.2149C68.7828 66.0632 69.416 65.5449 70.1789 65.5449C70.9705 65.5449 71.5174 66.1784 71.5174 67.2293C71.5174 68.1506 71.1432 68.6113 70.5819 68.6113C70.0637 68.6113 69.6751 68.2514 69.6751 67.4164C69.6751 67.2725 69.6895 67.1141 69.7183 66.9414H70.1213C70.1789 66.7974 70.1933 66.6822 70.1933 66.5814C70.1933 66.2791 70.0061 66.2071 69.8478 66.2071C69.1138 66.2071 68.5093 67.5316 68.5093 69Z" fill="white"/>
<path d="M74.5542 65.7032V73.0021H75.4178V73.4196H71.8628V73.0021H72.7119V66.1207H71.834V65.7032H74.5542ZM73.5611 61.8163C74.1944 61.8163 74.5974 62.205 74.5974 63.0544C74.5974 63.7742 74.2663 64.3068 73.5467 64.3068C72.7119 64.3068 72.496 63.6446 72.496 63.0544C72.4817 62.4065 72.8127 61.8163 73.5611 61.8163Z" fill="white"/>
<path d="M78.5269 65.7033V67.1573C78.8148 66.3511 79.3617 65.5305 80.657 65.5305C81.8516 65.5305 82.6288 66.2791 82.6288 68.237V72.9877H83.4924V73.4052H80.0381V72.9877H80.801V67.9923C80.801 66.711 80.5995 66.2935 80.0381 66.2935C79.2609 66.2935 78.5413 67.3588 78.5413 68.7697V72.9877H79.3185V73.4052H75.8643V72.9877H76.7134V66.1064H75.8643V65.6889H78.5269V65.7033Z" fill="white"/>
<path d="M87.9539 73.0022H88.7024L86.9896 69.4031L86.5435 69.5183V73.0022H87.2775V73.4196H83.852V73.0022H84.7012V61.6724H83.8232V61.2549H86.5435V69.0432L86.8889 68.928L89.4796 66.1208H88.4001V65.7033H91.0052V66.1208H90.0841L88.3425 68.0355L90.7317 73.0022H91.3074V73.4196H87.9683V73.0022H87.9539Z" fill="white"/>
<path fill-rule="evenodd" clip-rule="evenodd" d="M68.9697 87.4559C69.3151 87.4559 69.603 87.168 69.603 86.8225C69.603 86.477 69.3151 86.1891 68.9697 86.1891C68.6243 86.1891 68.3364 86.477 68.3364 86.8225C68.3364 87.168 68.6243 87.4559 68.9697 87.4559Z" fill="#263143"/>
<path fill-rule="evenodd" clip-rule="evenodd" d="M71.1719 89.8169C71.5173 89.8169 71.8051 89.529 71.8051 89.1835C71.8051 88.838 71.5173 88.55 71.1719 88.55C70.8264 88.55 70.5386 88.838 70.5386 89.1835C70.5386 89.529 70.8264 89.8169 71.1719 89.8169Z" fill="#263143"/>
<path d="M44.4304 89.9609C46.0568 91.0406 46.8052 92.0771 46.0136 93.2864C45.4235 94.1789 44.56 94.3229 43.4805 93.8334L43.4661 93.8478C44.5024 94.7548 44.8478 95.7625 44.2146 96.7127C43.2215 98.2099 41.7102 97.7636 39.9687 96.5975L37.4932 94.9707L37.6803 94.6972L38.3999 95.1723L42.4443 89.0539L41.7246 88.5788L41.9117 88.3053L44.4304 89.9609ZM39.8392 96.1224L40.2853 96.4247C41.3216 97.1157 41.9549 96.8422 42.6745 95.7481C43.351 94.7116 43.3222 94.0494 42.214 93.3152L41.8542 93.0704L39.8392 96.1224ZM42.0413 92.7825L42.2859 92.9409C43.2934 93.6031 43.8691 93.3584 44.5456 92.3362C45.2077 91.3285 45.1213 90.8102 44.1858 90.1912L43.8835 89.9896L42.0413 92.7825Z" fill="white"/>
<path d="M50.8496 99.5055L52.9653 94.8411L52.2745 94.5244L52.404 94.2221L54.1311 94.9995L54.0016 95.3018L53.3395 94.9995L51.267 99.5631C50.5617 101.118 49.5399 101.809 47.5249 100.902C45.8697 100.153 45.0349 99.0448 45.9129 97.1301L47.971 92.5666L47.2946 92.2642L47.4241 91.9619L50.389 93.3008L50.2595 93.6031L49.5255 93.272L47.3666 98.0227C46.8772 99.1024 46.8052 100.096 48.1294 100.686C49.2232 101.204 50.2307 100.873 50.8496 99.5055Z" fill="white"/>
<path d="M57.1676 95.8057C59.0531 96.3096 60.0893 97.0582 59.7295 98.4546C59.4561 99.4767 58.6789 99.8942 57.5131 99.7791V99.8079C58.794 100.341 59.4273 101.175 59.1394 102.284C58.6789 104.012 57.0957 104.069 55.0663 103.522L52.2021 102.759L52.2885 102.442L53.1233 102.658L55.0087 95.5754L54.1739 95.3594L54.2603 95.0427L57.1676 95.8057ZM54.764 103.09L55.2822 103.234C56.4912 103.551 56.9949 103.105 57.3403 101.838C57.657 100.643 57.4123 100.024 56.1314 99.6783L55.714 99.5631L54.764 103.09ZM55.7859 99.232L56.0738 99.304C57.2396 99.6063 57.7146 99.2032 58.0312 98.0083C58.3334 96.8422 58.0888 96.3816 57.0093 96.0936L56.6495 95.9929L55.7859 99.232Z" fill="white"/>
<path d="M63.846 97.087C65.7891 97.2885 66.9405 97.8644 66.7821 99.304C66.667 100.355 65.9762 100.888 64.796 100.96V100.988C66.1345 101.319 66.8973 102.054 66.7821 103.177C66.595 104.962 65.055 105.264 62.9537 105.034L60.0176 104.731L60.0464 104.4L60.8955 104.487L61.6583 97.1877L60.8092 97.1014L60.838 96.7703L63.846 97.087ZM62.6083 104.659L63.1408 104.717C64.3786 104.847 64.8103 104.314 64.9543 103.004C65.0838 101.78 64.7384 101.204 63.4286 101.06L62.9969 101.017L62.6083 104.659ZM63.0257 100.686L63.3279 100.715C64.5225 100.844 64.9255 100.355 65.055 99.1312C65.1846 97.9363 64.8535 97.5189 63.7453 97.4037L63.3855 97.3605L63.0257 100.686Z" fill="white"/>
<path d="M71.4164 97.2885L71.4308 97.6196L70.2218 97.6772L70.5385 105.005L71.1718 104.976C72.7118 104.904 73.3019 104.141 73.6905 102.572L73.9783 102.557L73.9352 105.178L68.0629 105.437L68.0485 105.106L68.8401 105.077L68.5091 97.7491L67.7175 97.7779L67.7031 97.4468L71.4164 97.2885Z" fill="white"/>
<path d="M79.7356 96.0648L80.2681 98.2099L80.0091 98.253C79.3182 96.799 78.6274 96.6119 77.2601 96.871L76.526 97.015L77.1737 100.369L77.6487 100.283C78.4547 100.125 78.7137 99.6207 78.6993 98.5841L78.944 98.541L79.5917 101.866L79.3182 101.924C78.8721 100.801 78.4978 100.499 77.6055 100.672L77.2313 100.744L77.9077 104.227L78.6993 104.069C80.225 103.781 80.8582 102.932 80.887 101.507L81.1173 101.463L81.5059 103.868L75.5186 105.019L75.461 104.688L76.2382 104.544L74.8421 97.3461L74.0649 97.49L74.0073 97.1589L79.7356 96.0648Z" fill="white"/>
<path d="M89.8104 95.0428L89.5513 95.1579C88.4287 93.6175 87.853 93.4304 86.7304 93.9055L86.5864 93.963L89.4218 100.729L90.3861 100.326L90.5156 100.628L87.0326 102.097L86.9031 101.795L87.8674 101.391L85.032 94.6253L84.8881 94.6828C83.7655 95.1579 83.5064 95.7482 83.823 97.5765L83.5496 97.6916L82.6572 95.2587L88.7309 92.7106L89.8104 95.0428Z" fill="white"/>
<path d="M93.9843 89.4714L95.2364 91.2853L95.0061 91.4293C93.8403 90.3064 93.1351 90.3784 91.9549 91.1126L91.3072 91.5157L93.1063 94.4237L93.5237 94.1646C94.2289 93.7327 94.2865 93.1712 93.8979 92.2067L94.1138 92.0771L95.8841 94.9564L95.6538 95.1003C94.8334 94.2078 94.3873 94.0638 93.6101 94.5389L93.2934 94.7404L95.1645 97.7636L95.8553 97.3317C97.1794 96.5112 97.4673 95.5034 96.9923 94.1646L97.1938 94.035L98.4028 96.1513L93.2071 99.3616L93.0343 99.0737L93.7108 98.6562L89.8536 92.4083L89.1771 92.8257L89.0044 92.5378L93.9843 89.4714Z" fill="white"/>
<path d="M101.008 90.6374L99.1803 92.2066L100.058 94.5244L100.749 93.9341L100.965 94.1933L99.425 95.5033L99.2091 95.2442L99.7272 94.8123L96.9351 87.1104L97.4244 86.6929L104.549 90.7094L105.067 90.2631L105.283 90.5222L102.678 92.7393L102.462 92.4801L103.138 91.9043L101.008 90.6374ZM99.0508 91.8755L100.72 90.4503L97.9282 88.8235L99.0508 91.8755Z" fill="white"/>
<path d="M33.0312 62.0611C33.06 61.9747 33.0744 61.8883 33.1032 61.8019C33.1176 61.7875 33.1176 61.7732 33.132 61.7588C33.132 61.7732 33.132 61.6292 33.1176 61.6436C33.1032 61.73 33.0744 61.9747 33.0312 62.0611Z" fill="white"/>
<path d="M19.1281 75.2048C18.279 75.2048 17.5737 75.8958 17.5737 76.7596C17.5737 77.609 18.2646 78.3144 19.1281 78.3144C19.9773 78.3144 20.6826 77.6234 20.6826 76.7596C20.6826 75.8958 19.9773 75.2048 19.1281 75.2048Z" fill="#F4BC49"/>
<path d="M20.999 82.0862C20.999 82.9355 21.6899 83.6409 22.5534 83.6409C23.4026 83.6409 24.1078 82.9499 24.1078 82.0862C24.1078 81.2368 23.417 80.5314 22.5534 80.5314C21.7043 80.5314 20.999 81.2368 20.999 82.0862Z" fill="#E52820"/>
<path d="M29.4909 80.0707C28.6418 80.0707 27.9365 80.7617 27.9365 81.6255C27.9365 82.4748 28.6274 83.1802 29.4909 83.1802C30.3401 83.1802 31.0453 82.4892 31.0453 81.6255C31.0453 80.7761 30.3401 80.0707 29.4909 80.0707Z" fill="white"/>
<path d="M28.5698 71.8648C28.5698 71.0155 27.8789 70.3101 27.0153 70.3101C26.1662 70.3101 25.4609 71.0011 25.4609 71.8648C25.4609 72.7142 26.1518 73.4196 27.0153 73.4196C27.8789 73.4052 28.5698 72.7142 28.5698 71.8648Z" fill="#F4BC49"/>
<path fill-rule="evenodd" clip-rule="evenodd" d="M21.1574 73.3189C22.0066 73.3189 22.7119 72.6279 22.7119 71.7641C22.7119 70.9148 22.021 70.2094 21.1574 70.2094C20.3083 70.2094 19.603 70.9004 19.603 71.7641C19.6174 72.6279 20.3083 73.3189 21.1574 73.3189Z" fill="#E52820"/>
<path fill-rule="evenodd" clip-rule="evenodd" d="M25.2595 78.6599C26.1087 78.6599 26.8139 77.9688 26.8139 77.1051C26.8139 76.2557 26.1231 75.5503 25.2595 75.5503C24.4103 75.5503 23.7051 76.2413 23.7051 77.1051C23.7195 77.9544 24.4103 78.6599 25.2595 78.6599Z" fill="white"/>
<path fill-rule="evenodd" clip-rule="evenodd" d="M21.6467 90.3495C19.79 90.1768 18.4227 89.5577 17.8758 88.5644C17.8758 88.5644 17.8758 88.55 17.8614 88.55C17.3864 87.571 18.5379 86.405 19.1711 85.9731C19.6461 85.642 20.5097 85.7859 19.862 86.5201C19.6893 86.7217 19.5453 86.9088 19.459 87.0816C19.3438 87.2975 19.3151 87.4847 19.3438 87.6286C19.4878 88.1469 20.4089 88.4924 21.805 88.6364C23.4602 88.7947 25.6479 88.5932 27.9795 87.9741H27.9939C28.0226 87.9597 28.0514 87.9597 28.0946 87.9454H28.109C29.6058 87.5423 30.9588 87.0384 32.0958 86.4625C32.1821 86.4194 32.2685 86.3762 32.3405 86.333C32.3405 86.333 32.3548 86.333 32.3548 86.3186C33.3336 85.8867 32.9737 86.8656 32.4124 87.2975C30.1672 89.0683 24.6835 90.6374 21.6467 90.3495ZM19.3726 59.1962C17.6887 56.5185 16.0047 53.8121 14.8245 51.9262C14.7382 51.7966 14.5799 51.739 14.4215 51.7966C12.2339 52.6316 10.3484 53.6105 8.89475 54.6326C6.96613 56.0003 5.87228 57.3535 6.05939 58.39C6.05939 58.4188 6.07378 58.4476 6.08817 58.462C6.14574 58.606 6.21771 58.7499 6.28967 58.8939C6.30406 58.9227 6.31845 58.9371 6.33285 58.9515C6.92295 59.7289 8.4054 60.2327 10.4492 60.4343C12.8383 60.6646 15.8896 60.4343 19.1711 59.6857C19.2863 59.6569 19.3582 59.5849 19.4014 59.4841C19.4446 59.3978 19.4302 59.297 19.3726 59.1962ZM20.9127 49.9827C23.6761 49.4644 26.2092 49.3205 28.2529 49.522C30.6133 49.7523 32.2253 50.3858 32.5707 51.3935C32.5851 51.4223 32.5851 51.4511 32.5851 51.4799L32.6283 51.9549C32.6283 51.9837 32.6283 51.9981 32.6283 52.0269C32.4988 52.9915 31.4625 54.172 29.7786 55.3524C27.6772 56.8352 24.626 58.2317 21.0854 59.225C20.9414 59.2682 20.7831 59.2106 20.7112 59.0667L16.4221 51.5375C16.3646 51.4511 16.3646 51.3503 16.4077 51.2495C16.4509 51.1488 16.5229 51.0912 16.6236 51.048C17.113 50.8896 17.6167 50.7457 18.1205 50.6161H18.1349C18.1636 50.6161 18.1924 50.6017 18.2212 50.5873H18.2356C18.5235 50.5153 18.8113 50.4434 19.0992 50.3714C19.2431 50.3426 19.387 50.4002 19.459 50.5297L21.8194 54.6902C21.9057 54.8486 22.0929 54.9062 22.2512 54.8198C22.4095 54.7478 22.4815 54.5463 22.4095 54.3879C21.8338 53.0922 21.2581 51.7678 20.6536 50.4577C20.6104 50.357 20.6104 50.2562 20.668 50.1698C20.7255 50.0547 20.8119 49.9971 20.9127 49.9827ZM20.0059 48.3991C23.1435 47.7657 26.0796 47.5785 28.4256 47.7945C31.592 48.0968 33.7941 49.2053 34.2835 51.0336C34.3554 51.3359 34.3842 51.6382 34.3698 51.9406C34.3698 51.9549 34.3698 51.9693 34.3698 51.9837C34.8016 57.3535 34.7872 62.8097 34.7872 68.1362C34.7872 68.0211 34.6577 68.9136 34.1252 68.4673L32.9737 55.626C32.9593 55.4964 32.8874 55.3956 32.7578 55.338C32.6283 55.2949 32.4988 55.3237 32.4124 55.41C31.9519 55.8563 31.4049 56.3026 30.786 56.7345C28.6415 58.2461 25.6191 59.6569 22.1216 60.6934C22.0209 60.7222 21.9489 60.7942 21.9057 60.895C21.8626 60.9957 21.877 61.0965 21.9201 61.1829L25.8493 68.093C26.166 68.6545 25.4464 68.8272 25.1297 68.3666C25.0002 68.1794 23.014 65.0123 20.6968 61.3268C20.6248 61.1973 20.4809 61.1397 20.3369 61.1829C16.5661 62.1186 13.0111 62.421 10.2621 62.1618C9.49924 62.0898 8.77961 61.9603 8.14633 61.8019C8.01679 61.7731 7.90165 61.8019 7.8153 61.9027C7.72894 62.0035 7.71455 62.133 7.75773 62.2482C10.6507 68.8992 14.623 78.6022 16.0911 83.0219C16.2782 83.5977 15.7169 83.7849 15.4722 83.2522L4.79283 59.7721C4.79283 59.7577 4.77844 59.7433 4.77844 59.7289C4.62012 59.4841 4.50497 59.2106 4.43301 58.9227V58.9083V58.8939C3.97244 57.08 5.33975 55.0357 7.93044 53.2218C9.3841 52.1997 11.2552 51.2063 13.3997 50.357C13.5004 50.3138 13.558 50.2418 13.5868 50.1554C13.6156 50.0547 13.6012 49.9683 13.558 49.8819L13.3133 49.4932C13.3133 49.4932 13.3133 49.4788 13.2989 49.4788L9.24017 42.3383C8.88035 41.7049 8.95232 40.9563 9.36971 40.2509C9.68635 39.7038 10.2189 39.1712 10.9097 38.7681C10.9097 38.7681 10.9241 38.7681 10.9241 38.7537C10.9529 38.7249 10.9961 38.7105 11.0393 38.6961C11.0393 38.6961 11.0537 38.6961 11.0537 38.6817C11.7445 38.3074 12.4785 38.1202 13.1118 38.1202C13.9178 38.1346 14.5943 38.437 14.9541 39.056L14.9685 39.0704C16.6236 41.9928 18.1924 45.088 19.6461 48.1976C19.7037 48.3559 19.8476 48.4279 20.0059 48.3991ZM17.7463 48.9318L17.7894 48.9174C17.8758 48.903 17.9478 48.8742 18.0341 48.8598C18.1349 48.831 18.2212 48.759 18.2644 48.6726C18.3076 48.5719 18.2932 48.4711 18.25 48.3847L13.4572 39.963C13.4284 39.9054 13.2845 39.8766 13.083 39.8766C12.7232 39.8766 12.2626 39.9917 11.8165 40.2509C11.3703 40.51 11.0393 40.8267 10.8522 41.1434C10.7514 41.3162 10.7082 41.4601 10.737 41.5033C10.7514 41.5177 10.7946 41.5321 10.8665 41.5609C11.0393 41.6041 11.2695 41.6041 11.5286 41.5465C11.615 41.5321 11.7157 41.5177 11.8021 41.5321C11.8165 41.5321 11.8309 41.5321 11.8453 41.5465C12.1763 41.6329 12.4497 42.0504 12.2051 42.3383C12.1187 42.4247 11.9748 42.5111 11.7877 42.5974C11.7013 42.6406 11.6294 42.6982 11.6006 42.799C11.5718 42.8998 11.5718 42.9861 11.6294 43.0725L15.2419 49.4356C15.3139 49.5796 15.4866 49.6372 15.6305 49.594C16.307 49.3348 17.0122 49.1189 17.7463 48.9318Z" fill="white"/>
<path d="M62.3059 22.4429C62.3203 22.7308 62.1044 23.0619 61.8165 23.0907C61.4135 23.1195 59.5137 22.6732 55.4981 22.9467C37.7663 24.1416 32.6569 33.5279 32.9736 38.1059C32.988 38.3506 32.8728 38.5234 32.5994 38.5378C31.8653 38.581 30.239 37.2277 30.0519 34.6364C29.7208 29.6985 36.2119 22.2989 50.3887 21.3344C60.2046 20.6721 62.2915 22.0398 62.3059 22.4429ZM46.1285 40.9131C46.1429 41.1579 46.0421 41.2874 45.9126 41.2874C45.6823 41.3018 45.4089 40.8987 44.1135 40.9995C42.775 41.1003 40.6449 42.2664 38.6011 43.562C35.9529 52.3005 34.6431 64.3789 34.931 68.3954C34.9598 68.7553 34.1969 69.0145 33.9667 69.0288C33.3766 69.072 32.3115 65.9337 32.038 62.1619C31.8222 59.1099 32.7001 52.79 34.1394 46.2973C33.6788 46.5133 33.3334 46.6572 33.1319 46.6716C31.2752 46.8012 29.8216 44.6274 29.7208 43.2453C29.692 42.7703 29.836 42.6407 30.2677 42.5975C31.6782 42.4967 33.4629 42.0073 35.3196 41.3306C35.3196 41.3306 35.3628 41.3306 35.3484 41.2731C37.8383 31.9443 39.4791 27.8558 41.0191 21.3056C41.2925 20.1971 41.4221 19.7652 41.8107 19.7364C42.6023 19.6788 43.9264 21.5647 44.0416 23.3066C44.3006 26.9633 42.6167 30.9942 39.7669 39.7471C41.2782 39.2144 42.6311 38.8113 43.5666 38.7537C44.7324 38.6673 46.0565 40.0206 46.1285 40.9131Z" fill="#E52820"/>
<path d="M31.0881 73.6644C30.2389 73.6644 29.5337 74.3554 29.5337 75.2192C29.5337 76.0686 30.2245 76.774 31.0881 76.774C31.9373 76.774 32.6425 76.083 32.6425 75.2192C32.6281 74.3554 31.9373 73.6644 31.0881 73.6644Z" fill="#E52820"/>
</g>
<defs>
<clipPath id="clip0_3266_17314">
<rect width="123" height="108" fill="white" transform="translate(0 0.143188)"/>
</clipPath>
</defs>
</svg>
