<svg width="60" height="59" viewBox="0 0 60 59" fill="none" xmlns="http://www.w3.org/2000/svg">
<g clip-path="url(#clip0_3265_338)">
<path d="M14.8097 25.38C15.4334 25.38 17.0427 25.3455 18.5133 25.0262C20.6107 24.5708 21.7403 23.6872 21.8707 22.3998C21.9282 21.8324 21.7498 21.3004 21.355 20.8612C20.1128 19.4793 16.7799 19.2561 14.9038 19.2461C13.805 19.2461 13.7863 20.9648 14.8946 20.9707C17.403 20.9842 19.5323 21.4133 20.0726 22.0143C20.1588 22.1103 20.161 22.1671 20.1549 22.2262C20.0737 23.0277 17.7259 23.6556 14.8099 23.6556C12.3072 23.6556 10.0943 23.2171 9.54843 22.6129C9.09829 22.1151 10.3767 21.6043 10.6579 21.5078C11.7102 21.1472 11.151 19.5151 10.0988 19.8764C8.29058 20.4961 7.82298 21.4963 7.74905 22.2262C7.69144 22.7956 7.87115 23.3294 8.26897 23.7694C9.5828 25.223 13.2808 25.38 14.8097 25.38Z" fill="#1C2833"/>
<path d="M5.28102 29.6309C4.80479 29.6309 4.4187 30.017 4.4187 30.4932V36.9914C4.4187 37.4677 4.80479 37.8537 5.28102 37.8537C5.75726 37.8537 6.14335 37.4677 6.14335 36.9914V30.4932C6.14335 30.017 5.75726 29.6309 5.28102 29.6309Z" fill="#1C2833"/>
<path d="M58.7717 45.9936C59.2481 45.9936 59.634 45.6075 59.634 45.1312V32.8359C59.634 30.9483 58.0783 29.2362 55.2532 28.0149C52.658 26.893 49.2264 26.2751 45.5905 26.2751C44.1062 26.2751 42.6574 26.3797 41.2843 26.578V7.90626C41.2843 6.86147 40.7964 5.31676 38.4721 3.89151C36.9158 2.93732 34.8102 2.21033 32.3663 1.77962C31.8314 0.775075 30.7736 0.0893555 29.5582 0.0893555C28.645 0.0893555 27.8212 0.476826 27.2407 1.09528C26.6603 0.476826 25.8364 0.0893555 24.9232 0.0893555C23.7079 0.0893555 22.6501 0.775075 22.115 1.77962C19.6712 2.21033 17.5655 2.93732 16.0093 3.89151C13.6851 5.31676 13.1971 6.86147 13.1971 7.90626V15.7949C10.1682 15.9498 7.35449 16.5378 5.14683 17.4921C2.32197 18.7133 0.766113 20.4255 0.766113 22.3129V41.8736C0.766113 43.7612 2.32197 45.4733 5.14694 46.6946C7.74219 47.8165 11.1738 48.4344 14.8097 48.4344C18.4456 48.4344 21.8772 47.8165 24.4724 46.6946C27.2974 45.4733 28.8532 43.7612 28.8532 41.8736V33.9853C29.7714 33.9383 30.6724 33.8516 31.5469 33.7251V52.3966C31.5469 54.2842 33.1027 55.9963 35.9279 57.2176C38.523 58.3394 41.9546 58.9573 45.5905 58.9573C49.2264 58.9573 52.658 58.3394 55.2532 57.2175C58.0782 55.9962 59.634 54.2841 59.634 52.3965V49.7008C59.634 48.5885 57.9094 48.5885 57.9094 49.7008V52.3965C57.9094 53.5365 56.6918 54.7166 54.5689 55.6343C52.1848 56.665 48.9962 57.2325 45.5905 57.2325C38.3306 57.2325 33.2714 54.6838 33.2714 52.3964V36.0675C36.4947 38.8136 41.5258 39.3966 45.5905 39.3966C49.6559 39.3966 54.6857 38.814 57.9094 36.0675V45.1312C57.9094 45.6075 58.2954 45.9936 58.7717 45.9936ZM24.0609 7.28331C24.0609 8.08574 23.4082 8.73846 22.6058 8.73846C21.8033 8.73846 21.1506 8.08574 21.1506 7.28331C21.1506 6.48089 21.8035 5.82817 22.6058 5.82817C23.4081 5.82817 24.0609 6.48101 24.0609 7.28331ZM27.2408 5.82817C28.0432 5.82817 28.696 6.48101 28.696 7.28331C28.696 8.08562 28.0432 8.73846 27.2408 8.73846C26.4384 8.73846 25.7857 8.08574 25.7857 7.28331C25.7857 6.48089 26.4384 5.82817 27.2408 5.82817ZM30.4206 7.28193C30.4214 6.4802 31.0738 5.82829 31.8757 5.82829C32.6782 5.82829 33.3309 6.48112 33.3309 7.28343C33.3309 8.08573 32.678 8.73857 31.8757 8.73857C31.0739 8.73857 30.4215 8.08666 30.4206 7.28492C30.4206 7.28446 30.4206 7.284 30.4206 7.28343C30.4206 7.28285 30.4206 7.28239 30.4206 7.28193ZM29.5582 1.814C30.3605 1.814 31.0133 2.46684 31.0133 3.26914C31.0133 4.07145 30.3605 4.72428 29.5582 4.72428C28.7557 4.72428 28.103 4.07156 28.103 3.26914C28.103 2.46672 28.7559 1.814 29.5582 1.814ZM24.9232 1.814C25.7257 1.814 26.3784 2.46684 26.3784 3.26914C26.3784 4.07145 25.7255 4.72428 24.9232 4.72428C24.1209 4.72428 23.4681 4.07156 23.4681 3.26914C23.4681 2.46672 24.1209 1.814 24.9232 1.814ZM16.911 5.36171C18.129 4.61483 19.8264 4.00246 21.7612 3.60303C21.7822 3.80424 21.8224 3.99982 21.8795 4.18815C20.4751 4.51767 19.426 5.77988 19.426 7.28331C19.426 9.03671 20.8525 10.4631 22.6058 10.4631C23.5189 10.4631 24.3427 10.0756 24.9232 9.45729C25.5037 10.0757 26.3276 10.4631 27.2407 10.4631C28.1538 10.4631 28.9776 10.0756 29.5582 9.45729C30.1387 10.0757 30.9625 10.4631 31.8756 10.4631C33.629 10.4631 35.0554 9.03671 35.0554 7.28331C35.0554 5.77988 34.0064 4.51779 32.6019 4.18815C32.659 3.99982 32.6992 3.80424 32.7202 3.60303C34.655 4.00235 36.3523 4.61471 37.5705 5.36171C38.3134 5.81725 39.5596 6.7535 39.5596 7.90626C39.5596 9.04613 38.342 10.2263 36.2191 11.1441C33.8351 12.1748 30.6464 12.7423 27.2407 12.7423C19.981 12.7423 14.9218 10.1936 14.9218 7.90626C14.9219 6.75362 16.1681 5.81725 16.911 5.36171ZM5.83128 19.0751C8.21521 18.0444 11.4038 17.4769 14.8096 17.4769C22.0693 17.4769 27.1285 20.0256 27.1285 22.3129C27.1285 23.4529 25.9109 24.633 23.788 25.5508C21.4039 26.5814 18.2154 27.1489 14.8096 27.1489C7.54995 27.1491 2.49076 24.6004 2.49076 22.3129C2.49076 21.173 3.70836 19.9929 5.83128 19.0751ZM23.788 45.1115C21.404 46.1421 18.2154 46.7096 14.8097 46.7096C7.54995 46.7098 2.49076 44.1611 2.49076 41.8736V25.5446C3.18223 26.1337 4.07249 26.6694 5.14694 27.1338C7.74208 28.2557 11.1737 28.8736 14.8097 28.8736C18.4457 28.8736 21.8772 28.2557 24.4724 27.1338C25.5469 26.6693 26.4371 26.1336 27.1286 25.5444V41.8735C27.1286 43.0136 25.911 44.1937 23.788 45.1115ZM28.8532 22.3129C28.8532 20.4253 27.2974 18.7133 24.4724 17.4921C21.904 16.3817 18.5161 15.766 14.9219 15.7535V11.1379C15.6134 11.727 16.5036 12.2627 17.5781 12.7271C20.1733 13.849 23.6049 14.4669 27.2408 14.4669C30.8767 14.4669 34.3083 13.849 36.9035 12.7271C37.978 12.2626 38.8683 11.727 39.5597 11.1379V26.8855C38.2351 27.1696 37.0082 27.5479 35.9279 28.0149C33.5449 29.0451 32.065 30.4246 31.6602 31.9639C30.7543 32.1082 29.8146 32.2063 28.8532 32.2584V22.3129ZM54.5689 36.0738C52.1848 37.1044 48.9962 37.6719 45.5905 37.6719C38.3306 37.6719 33.2714 35.1232 33.2714 32.8359C33.2714 31.6959 34.489 30.5158 36.6121 29.5981C38.996 28.5674 42.1848 27.9999 45.5905 27.9999C52.8502 27.9999 57.9094 30.5486 57.9094 32.836C57.9094 33.9758 56.6918 35.1559 54.5689 36.0738Z" fill="#1C2833"/>
<path d="M51.6971 31.0592C50.7114 30.1268 47.789 28.8936 45.9711 29.6763C45.8133 29.7443 45.6259 29.846 45.4375 29.9915L41.5298 29.9649C37.8317 29.9649 37.8421 35.7068 41.5446 35.7068H45.474C46.0133 36.1047 46.6865 36.2508 47.3462 36.2508C48.9682 36.2508 50.754 35.4025 51.4182 34.8893C52.092 34.3685 52.483 33.6828 52.5191 32.9585C52.5536 32.2676 52.2617 31.593 51.6971 31.0592ZM40.6999 33.604C40.0279 32.8917 40.5387 31.6896 41.5211 31.6896L44.4882 31.7097C44.3852 32.4208 44.3859 33.2704 44.4949 33.9822H41.5446C41.2227 33.9822 40.9151 33.8446 40.6999 33.604ZM50.3636 33.5245C49.6493 34.0764 47.529 34.8392 46.6185 34.3922C45.9672 34.0722 46.173 32.8735 46.173 32.2774C46.173 31.4822 46.546 31.1486 47.3195 31.1486C48.3609 31.1486 49.7404 31.5822 50.5122 32.3121C50.9435 32.7203 50.8045 33.1839 50.3636 33.5245Z" fill="#1C2833"/>
<path d="M35.1995 41.0161V47.5144C35.1995 47.9906 35.5854 48.3767 36.0618 48.3767C36.5381 48.3767 36.9241 47.9906 36.9241 47.5144V41.0161C36.9241 40.5399 36.5381 40.1538 36.0618 40.1538C35.5854 40.1538 35.1995 40.5399 35.1995 41.0161Z" fill="#1C2833"/>
</g>
<defs>
<clipPath id="clip0_3265_338">
<rect width="58.8679" height="58.8679" fill="white" transform="translate(0.766113 0.0893555)"/>
</clipPath>
</defs>
</svg>
