<svg width="165" height="71" viewBox="0 0 165 71" fill="none" xmlns="http://www.w3.org/2000/svg">
<g clip-path="url(#clip0_3265_1294)">
<path fill-rule="evenodd" clip-rule="evenodd" d="M31.8375 13.0487L0.435059 13.0632L0.453584 54.3646L31.856 54.3518" fill="#007A4D"/>
<path fill-rule="evenodd" clip-rule="evenodd" d="M66.2208 13.0334L34.8159 13.0471L34.8344 54.3501L66.2409 54.3364L66.2208 13.0334Z" fill="#007A4D"/>
<path fill-rule="evenodd" clip-rule="evenodd" d="M100.605 13.0334L69.2002 13.0471L69.2187 54.3501L100.625 54.3364L100.605 13.0334Z" fill="#007A4D"/>
<path fill-rule="evenodd" clip-rule="evenodd" d="M164.885 13.0334L133.48 13.0471L133.499 54.3501L164.905 54.3364L164.885 13.0334Z" fill="#007A4D"/>
<path fill-rule="evenodd" clip-rule="evenodd" d="M127.871 9.18484L97.2891 16.3266L106.682 56.5474L137.266 49.4052L127.871 9.18484Z" fill="#D60026"/>
<path d="M2.69495 10.1517C1.47923 10.1525 0.771874 9.40329 0.432697 8.86915C0.336019 8.71124 0.348104 8.55736 0.518901 8.42765L0.843576 8.20449C0.99826 8.107 1.15375 8.1489 1.25204 8.28666C1.55013 8.69754 2.02788 9.14951 2.69495 9.1487C3.58197 9.1487 3.93564 8.56783 3.93645 8.03289C3.93564 7.07256 2.69414 7.07256 2.69414 7.07256C1.30924 7.00246 0.518095 6.28222 0.51729 5.2091C0.516484 4.30677 1.23673 3.34322 2.69253 3.34161C3.49496 3.34242 4.08872 3.69851 4.45609 4.10778C4.59788 4.26166 4.56888 4.41634 4.4142 4.52913L4.07663 4.77002C3.93564 4.8675 3.76404 4.83931 3.63675 4.72813C3.35558 4.45824 3.02849 4.33336 2.69253 4.33256C1.8168 4.33336 1.56141 4.91181 1.56141 5.20829C1.56221 6.04294 2.69334 6.08322 2.69334 6.08322C3.93564 6.15412 5.02326 6.70599 5.02326 8.03127C5.02407 9.23249 4.16284 10.1509 2.69495 10.1517Z" fill="#007A4E"/>
<path d="M12.27 10.1484C10.8722 10.1492 9.93926 9.07532 9.93765 7.86121L9.93604 3.79431C9.93604 3.59371 10.0488 3.48172 10.2478 3.48333L10.7119 3.48253C10.9109 3.48253 11.0229 3.59371 11.0229 3.79431L11.0245 7.8604C11.0261 8.49525 11.478 9.1438 12.27 9.1438C13.0611 9.1438 13.5131 8.49445 13.5123 7.85879L13.5107 3.79109C13.5107 3.5929 13.6235 3.48092 13.8209 3.48011L14.2865 3.48172C14.4839 3.48092 14.5975 3.5929 14.5983 3.79109L14.5991 7.85799C14.5991 9.07209 13.6678 10.1476 12.27 10.1484Z" fill="#007A4E"/>
<path d="M21.8443 4.33971C21.0539 4.33971 20.602 4.98906 20.6003 5.6231C20.6011 6.25956 21.0555 6.90891 21.8459 6.9081C22.6362 6.9081 23.0858 6.25795 23.0866 5.6239C23.0858 4.98744 22.6346 4.3389 21.8443 4.33971ZM21.8459 7.91113C21.5075 7.91033 21.1667 7.82815 20.8283 7.68555C20.7019 7.62835 20.602 7.69844 20.602 7.81123L20.6028 9.68839C20.6028 9.88899 20.49 10.001 20.2926 10.001L19.8277 10.0002C19.6295 10.001 19.5176 9.8898 19.5184 9.69L19.5151 5.6239C19.5151 4.4098 20.4457 3.33426 21.8451 3.33426C23.2421 3.33265 24.1758 4.40738 24.175 5.62229C24.1766 6.83801 23.2429 7.91033 21.8459 7.91113Z" fill="#007A4E"/>
<path d="M30.9706 10.1395C29.5752 10.1395 28.6407 9.06641 28.6399 7.8523V5.62066C28.6383 4.40655 29.572 3.32941 30.9674 3.32941C32.3668 3.3286 32.9171 4.30504 33.0291 4.55721C33.0863 4.68531 33.1153 4.8706 32.9461 4.98259L32.6069 5.22187C32.449 5.33385 32.2951 5.32338 32.1831 5.15258C32.0558 4.95681 31.761 4.33404 30.969 4.33566C30.1787 4.33485 29.7259 4.9842 29.7267 5.61986L29.7275 5.95823C29.7267 6.1548 29.8379 6.26921 30.0369 6.26921L31.4774 6.2684C31.6764 6.2684 31.7876 6.38119 31.7884 6.58018L31.7876 6.89036C31.7876 7.08774 31.6764 7.20134 31.4774 7.20134H30.0377C29.8387 7.20214 29.7275 7.31574 29.7275 7.51312V7.85069C29.7275 8.48634 30.1803 9.13569 30.9706 9.13489C31.7626 9.13489 32.0301 8.55563 32.1855 8.34374C32.3112 8.16167 32.4506 8.13347 32.6077 8.23256L32.9324 8.45573C33.1169 8.58302 33.1451 8.7232 33.0621 8.88111C32.9066 9.19289 32.3708 10.1387 30.9706 10.1395Z" fill="#007A4E"/>
<path d="M40.4314 4.33165C39.6411 4.33245 39.1899 4.981 39.1907 5.61584L39.1899 5.95502C39.1907 6.1516 39.3043 6.26519 39.5009 6.26519L40.4338 6.26439C40.7996 6.26519 41.6753 6.1226 41.6745 5.33226C41.6745 4.65471 41.0953 4.33084 40.4314 4.33165ZM42.4528 9.9905L41.9879 9.9913C41.7897 9.99211 41.6778 9.88013 41.6778 9.68033L41.6769 8.48152C41.6753 7.84668 41.225 7.19813 40.4338 7.19894L39.5017 7.19733C39.3043 7.19813 39.1915 7.31173 39.1923 7.50911V9.68113C39.1931 9.88174 39.0787 9.99372 38.8814 9.99211L38.4149 9.99292C38.2191 9.99372 38.1047 9.88174 38.1039 9.68274L38.1023 5.61746C38.1015 4.40174 39.0328 3.3262 40.4322 3.32539C41.7591 3.3262 42.7613 4.07464 42.7621 5.33145C42.7621 6.1226 42.3102 6.46097 42.1289 6.60357C42.0153 6.68896 42.0145 6.80014 42.1281 6.90004C42.4391 7.16752 42.763 7.60659 42.7638 8.48152V9.68033C42.7646 9.87851 42.6518 9.9905 42.4528 9.9905Z" fill="#007A4E"/>
<path d="M52.3099 3.31735L51.7597 3.31815C51.4857 3.31815 51.298 3.51473 51.215 3.71856L50.2934 5.97517L49.3669 3.71936C49.2831 3.51554 49.0962 3.31896 48.8223 3.31815L48.272 3.31896C48.1455 3.31896 48.0271 3.35763 47.9385 3.44464C47.8531 3.52843 47.8136 3.64927 47.816 3.77657L47.8184 9.67631C47.8176 9.80279 47.8563 9.92445 47.9409 10.0098C48.0311 10.096 48.1479 10.1363 48.2752 10.1347L48.6684 10.1339C48.7949 10.1355 48.9165 10.0952 49.0019 10.0082C49.0889 9.92445 49.1276 9.80199 49.1252 9.67631L49.1244 6.50126L49.694 7.78626C49.7987 8.04729 49.9993 8.26723 50.2942 8.26723C50.5939 8.26482 50.7856 8.0344 50.8928 7.78546L51.4616 6.49562L51.4632 9.67631C51.4616 9.80118 51.5002 9.92364 51.5872 10.0074C51.6726 10.0936 51.7935 10.1339 51.9192 10.1331H52.3131C52.3131 10.1331 52.3164 10.1323 52.3188 10.1323C52.4445 10.1331 52.5597 10.092 52.6467 10.0074C52.7305 9.92203 52.7683 9.80118 52.7683 9.6755L52.7659 3.77415C52.7659 3.64686 52.7272 3.52601 52.6426 3.44222C52.5556 3.35682 52.4372 3.31574 52.3099 3.31735Z" fill="#007A4E"/>
<path d="M59.0538 5.60704C59.0579 5.03422 59.4486 4.46544 60.1495 4.46624C60.8504 4.46544 61.2444 5.03261 61.2492 5.60704L61.2484 5.94299C61.2307 6.08237 61.221 6.09445 61.0832 6.10896L59.2174 6.10976C59.0796 6.09445 59.0691 6.08398 59.0546 5.9438L59.0538 5.60704ZM60.1479 3.17238C58.6719 3.17641 57.6762 4.31962 57.6746 5.60784L57.6762 9.67313C57.6762 9.79881 57.7148 9.92127 57.8027 10.0059C57.8856 10.0937 58.0081 10.1299 58.1338 10.1307L58.6002 10.1299C58.7235 10.1299 58.8444 10.0929 58.9314 10.0059C59.0176 9.92046 59.057 9.79801 59.0554 9.67233L59.0546 7.4995C59.0691 7.36173 59.0804 7.34965 59.2174 7.33354L61.0841 7.33273C61.2226 7.34884 61.2315 7.36093 61.2508 7.49789V9.67233C61.2492 9.7972 61.2879 9.91966 61.3741 10.0034C61.4603 10.0913 61.5803 10.1283 61.7068 10.1291H62.1733C62.1749 10.1291 62.1757 10.1291 62.1797 10.1283C62.3014 10.1291 62.4198 10.0888 62.5036 10.0026C62.5906 9.91885 62.6301 9.7972 62.6285 9.67071L62.6269 5.60543C62.6236 4.31639 61.6263 3.17399 60.1479 3.17238Z" fill="#007A4E"/>
<path d="M71.1072 5.31696C71.1048 5.65774 70.9372 5.82612 70.7028 5.95261C70.4716 6.07185 70.1767 6.10649 70.0115 6.10649H69.0778C68.9408 6.09118 68.9279 6.07829 68.9118 5.94053V5.60296C68.9151 5.02854 69.3098 4.46378 70.0107 4.46136C70.6375 4.47103 71.1056 4.74334 71.1072 5.31696ZM71.7904 6.70428C71.9805 6.5649 72.4921 6.17014 72.4865 5.31615C72.4825 3.97314 71.3852 3.17072 70.0099 3.16749C68.5308 3.17072 67.5358 4.31393 67.5342 5.60457L67.5366 9.66986C67.5342 9.79473 67.5745 9.91719 67.6607 10.0018C67.7445 10.0864 67.8669 10.1259 67.9918 10.1259H68.4566C68.5823 10.1259 68.7048 10.0864 68.7902 10.0002C68.8756 9.91639 68.9134 9.79393 68.9143 9.66905L68.9118 7.49381C68.9279 7.35766 68.94 7.34557 69.0794 7.32865L70.0115 7.32785C70.7116 7.33107 71.104 7.89583 71.1088 8.46864L71.1096 9.66664C71.1072 9.79312 71.1483 9.91478 71.2337 10.0002C71.3175 10.0856 71.4416 10.125 71.5664 10.125H72.0313C72.157 10.125 72.2762 10.0848 72.3648 9.99937C72.4486 9.91478 72.4881 9.79312 72.4889 9.66744L72.4881 8.46864C72.4897 7.55665 72.1352 7.05957 71.7985 6.77759C71.7638 6.74456 71.767 6.73328 71.7646 6.73248C71.7646 6.73248 71.7622 6.72925 71.7904 6.70428Z" fill="#007A4E"/>
<path d="M81.774 8.31801L81.4509 8.09082C81.3712 8.03926 81.2874 8.00784 81.198 8.00865C81.0441 8.00865 80.9168 8.10613 80.8249 8.24067C80.6509 8.47753 80.4398 8.96334 79.7285 8.96736C79.0284 8.96817 78.6368 8.40261 78.6312 7.82818L78.6296 5.59735C78.6352 5.02695 79.0259 4.45656 79.726 4.45736C80.431 4.45817 80.6799 4.99231 80.8209 5.21064C80.9031 5.33632 81.032 5.42011 81.1714 5.41769C81.2721 5.41688 81.3671 5.37821 81.4517 5.3186L81.7893 5.07932C81.9206 4.99392 81.9802 4.84568 81.9778 4.72403C81.9778 4.62977 81.9512 4.54759 81.9206 4.47992C81.8022 4.19794 81.2036 3.16349 79.726 3.16511C78.2477 3.16752 77.2559 4.31073 77.2551 5.59815V7.82818C77.2583 9.11721 78.2517 10.258 79.7293 10.2612H79.7325C81.2052 10.2604 81.7901 9.24853 81.9496 8.92386C81.9835 8.85618 82.0084 8.78207 82.0084 8.69908C82.0117 8.54601 81.9142 8.41066 81.774 8.31801Z" fill="#007A4E"/>
<path d="M90.8971 3.29962L90.4323 3.30043C90.3066 3.29962 90.1857 3.3399 90.0987 3.4253C90.0117 3.5107 89.9747 3.62993 89.9755 3.75723L89.9771 5.93166C89.9594 6.06943 89.9489 6.08151 89.8119 6.09763L87.946 6.09843C87.8099 6.08151 87.7978 6.07024 87.7801 5.93328L87.7793 3.75884C87.7817 3.63235 87.743 3.51151 87.6552 3.42691C87.5714 3.34071 87.449 3.30123 87.3241 3.30204L86.8592 3.30123C86.7335 3.30204 86.6127 3.34151 86.5273 3.42691C86.4403 3.51231 86.4008 3.63316 86.4016 3.75964L86.4048 9.66019C86.4048 9.78668 86.4435 9.90752 86.5297 9.99212C86.6151 10.0775 86.7352 10.1186 86.8608 10.117L87.3257 10.1178C87.4514 10.117 87.5738 10.0783 87.6592 9.99212C87.7462 9.90752 87.7841 9.78587 87.7825 9.65939L87.7809 7.48656C87.7978 7.34879 87.8091 7.3359 87.9469 7.31979L89.8119 7.31899C89.9497 7.3351 89.9618 7.34799 89.9779 7.48495V9.65939C89.9763 9.78587 90.0149 9.90672 90.1011 9.99051C90.1882 10.0767 90.309 10.1154 90.4339 10.1162L90.8987 10.1154C90.902 10.1154 90.9052 10.1162 90.9052 10.1162C91.0284 10.1162 91.1469 10.0751 91.2323 9.9897C91.3193 9.90591 91.3571 9.78507 91.3563 9.65777L91.3531 3.75803C91.3547 3.63074 91.3161 3.5107 91.2282 3.4245C91.1445 3.3391 91.0228 3.29962 90.8971 3.29962Z" fill="#007A4E"/>
<path d="M97.8618 2.65356C98.093 2.65195 98.3621 2.53835 98.6231 2.29102L99.7382 1.2461L99.739 1.24288C99.8445 1.15023 99.9033 1.02777 99.9025 0.905311C99.9025 0.677313 99.7059 0.500876 99.4691 0.500071L98.9051 0.500877C98.5619 0.49846 98.2807 0.674896 98.1172 0.937536L97.4952 1.95587C97.4348 2.05336 97.4026 2.15487 97.4026 2.25477C97.4026 2.5021 97.6282 2.65437 97.8618 2.65356Z" fill="#007A4E"/>
<path d="M100.6 8.30993L100.277 8.08113C100.195 8.03118 100.113 8.00056 100.023 8.00218C99.872 8.00218 99.7407 8.09724 99.6505 8.23259C99.4748 8.46945 99.2662 8.95364 98.5556 8.96251C97.8539 8.96009 97.4631 8.39291 97.4583 7.82091L97.4575 7.48415C97.4744 7.34477 97.4849 7.33268 97.6251 7.31496H99.0639C99.1904 7.31657 99.3089 7.27951 99.3967 7.1925C99.4805 7.1063 99.5199 6.98545 99.5191 6.85896L99.5175 6.54799C99.5199 6.42472 99.4813 6.30226 99.3959 6.22009C99.3097 6.12986 99.1888 6.09199 99.0639 6.09199H97.6251C97.4849 6.07749 97.4736 6.06621 97.4575 5.92764V5.59007C97.4607 5.01726 97.8523 4.45009 98.5532 4.44928C99.2573 4.4517 99.5071 4.98423 99.6464 5.20175C99.7262 5.32663 99.8559 5.41122 99.9969 5.40961C100.099 5.4088 100.193 5.37174 100.277 5.31051L100.614 5.06963C100.748 4.98503 100.806 4.83599 100.803 4.71595C100.803 4.62169 100.778 4.53951 100.75 4.47023C100.628 4.18986 100.031 3.15541 98.5524 3.15541C97.0764 3.16105 96.0814 4.30265 96.0798 5.59088L96.0806 7.8201C96.0839 9.10913 97.078 10.2515 98.5548 10.2548C98.5548 10.2548 98.5588 10.2548 98.5612 10.254C100.032 10.254 100.619 9.24126 100.775 8.91578C100.808 8.8481 100.835 8.77721 100.835 8.69181C100.839 8.53793 100.742 8.40258 100.6 8.30993Z" fill="#007A4E"/>
<path fill-rule="evenodd" clip-rule="evenodd" d="M81.4686 66.007C89.6153 68.6874 92.5132 69.7509 97.5791 70.3188C111.077 71.8359 121.023 63.5297 124.422 56.4416C124.69 55.8865 124.734 55.7802 124.604 55.6311C124.604 55.6311 124.422 55.466 123.958 55.864C112.144 65.9063 96.17 67.7569 81.5347 65.626C81.4283 65.6123 81.3325 65.6824 81.3171 65.7823C81.2954 65.8862 81.3735 65.9812 81.4686 66.007Z" fill="#D60026"/>
<path d="M89.3228 24.1974C88.4736 24.3118 87.875 24.4552 87.8468 25.2367C87.7791 27.0889 87.6317 48.0928 87.6285 48.3394C87.6253 48.5432 87.3248 49.1611 86.4796 49.1692C85.794 49.17 83.8089 48.5351 82.0873 47.781C81.4903 47.5112 81.4339 47.4032 81.4339 46.4985C81.4339 45.6767 81.4298 27.7801 81.429 27.1621C81.4282 25.6902 81.3452 25.0256 80.4357 25.1368C79.688 25.231 76.1633 25.6258 74.8977 25.7499C74.5666 25.7781 74.4215 25.3156 74.3676 25.1085C74.3144 24.8967 73.8342 22.9961 73.628 21.6676C73.5877 21.4211 73.4934 20.9522 73.9962 20.8129C79.2876 19.3498 87.2514 18.4386 92.9667 18.4354C94.1695 18.4354 94.4144 18.6263 94.6473 19.1879C94.8487 19.6793 95.0034 21.8248 95.034 22.8479C95.0549 23.6157 94.6956 23.4691 89.3228 24.1974Z" fill="white"/>
<path d="M127.993 40.8451C127.236 43.2484 125.948 45.2802 123.028 46.2865C120.765 47.0664 118.414 46.939 116.227 45.9062C113.147 44.4536 110.648 41.401 109.188 37.3228C107.807 33.4574 107.595 27.0614 107.959 24.7314C108.895 18.6891 110.522 18.3129 112.704 17.6941C114.446 17.2051 118.174 16.2714 120.533 20.0652C121.653 21.8714 122.385 23.3618 123.123 25.4138C123.736 27.1306 123.564 27.6092 123.131 27.8702C122.817 28.0612 121.905 28.5607 121.519 28.6976C120.08 29.1931 119.551 29.1713 118.558 27.8799C117.86 26.9792 116.873 25.0738 116.514 24.2625C116.29 23.7558 116.114 22.9953 114.985 23.1387C112.92 23.4118 114.174 31.917 114.899 34.5974C116.437 40.2933 118.411 41.8619 120.071 41.4832C123.056 40.8105 123.479 36.9064 123.086 34.7013C122.985 33.8844 122.696 33.5001 123.814 33.318C124.62 33.1842 125.962 33.4695 126.315 33.5428C126.588 33.6 127.814 34.0439 128.055 34.7263C128.685 36.4834 128.61 38.8544 127.993 40.8451Z" fill="white"/>
<path d="M157.429 49.1893C156.649 49.1748 154.328 48.8131 153.547 48.4191C152.699 47.9994 152.422 47.487 152.422 46.8401L152.417 38.7054C152.417 37.8184 152.251 37.4091 151.266 37.4003C150.091 37.3874 146.566 37.5268 145.976 37.5783C145.107 37.6557 145.056 38.3179 145.057 39.0003C145.059 44.1661 145.098 48.1017 145.058 48.6503C145 49.4439 145.024 49.663 143.721 49.6622C142.22 49.6638 140.354 48.8099 139.915 48.5504C138.893 47.9406 138.738 48.0404 138.737 46.3969C138.735 42.8344 138.729 22.3903 138.73 20.978C138.728 20.7251 138.798 19.1718 140.809 19.4594C141.894 19.6157 143.444 20.0338 144.063 20.2602C144.734 20.5059 144.909 20.7959 144.941 21.6652C144.974 22.3661 144.949 23.5085 144.949 25.3615L144.952 30.5596C144.952 30.9253 144.952 31.9026 145.718 31.9026C145.832 31.9026 150.295 31.8752 151.487 31.5811C152.281 31.3846 152.413 30.8431 152.409 29.9569C152.393 26.4717 152.409 20.0563 152.409 19.7816C152.409 18.0148 153.507 18.0471 154.234 18.1067C155.61 18.2219 156.672 18.4942 157.932 18.8149C158.726 19.0187 158.861 19.1733 158.861 20.1192L158.867 30.9439C158.868 36.6132 158.705 46.4211 158.618 47.6046C158.564 48.5134 158.696 49.2143 157.429 49.1893Z" fill="white"/>
<path fill-rule="evenodd" clip-rule="evenodd" d="M26.6579 48.8702C25.4905 48.9805 22.6845 48.6502 22.6023 47.8357C22.3582 45.3705 22.0512 39.5899 21.8273 35.374C21.6968 33.0191 21.5872 31.1548 21.5558 30.7093C21.5445 30.5651 21.5413 30.2606 21.493 30.1381C21.4301 29.9585 21.1409 30.0004 21.0748 30.1462C20.9491 30.4153 20.2845 33.4114 20.2434 33.6177C19.7745 35.8671 18.9109 39.7857 18.558 41.2488C18.4371 41.7556 18.102 42.2357 16.8097 42.4041C15.6423 42.5604 13.2383 42.1277 12.9926 41.2456C12.6268 39.9098 11.9614 36.9241 11.1195 33.6C10.7456 32.1418 10.4709 31.2596 10.2381 31.2717C10.2308 31.2717 10.1027 31.2693 10.0947 31.4135C9.89648 34.8504 9.74664 38.2969 8.74845 48.7058C8.69205 49.2867 8.30373 49.2665 7.64794 49.2085C6.74158 49.1296 4.54135 48.0734 3.78808 47.3644C3.42876 47.018 3.42796 46.6063 3.43118 45.7056C3.43682 44.2506 4.32546 30.524 5.81107 21.1189C5.85538 20.8442 5.94641 20.4365 6.34842 20.3914C8.14582 20.1836 13.132 21.5258 13.4059 21.6603C13.592 21.7433 13.8087 23.1588 13.9739 24.2859C14.1471 25.4799 15.3555 33.007 15.7149 33.0054C16.2256 33.0054 18.6031 19.7904 18.6853 19.4674C18.8762 18.7503 19.528 18.7576 20.0814 18.8413C20.8605 18.9638 23.7431 19.386 25.5429 20.3028C25.9441 20.5074 25.9965 20.5219 26.0932 21.268L27.2791 33.1786C27.8358 38.765 28.2056 43.532 28.4231 47.7479C28.4497 48.4005 28.4666 48.697 26.6579 48.8702Z" fill="white"/>
<path fill-rule="evenodd" clip-rule="evenodd" d="M47.3017 17.9154C46.5065 17.9154 46.2858 18.1499 46.1287 18.6341C44.4005 24.4146 40.0182 42.902 40.019 47.6432C40.0209 48.2862 42.4147 49.7978 44.0622 49.797C44.9146 49.7952 45.4636 49.3958 45.5563 48.9414C45.6417 48.5088 46.5629 43.1828 46.7659 42.0871C46.8417 41.6803 47.0353 42.2362 50.5471 42.0187C53.5385 41.7899 54.3922 41.1943 54.451 41.5053C54.5993 42.2602 55.7518 46.4212 55.8766 46.8514C55.9749 47.2018 56.2743 47.6811 58.1579 47.6787C59.5629 47.678 61.0748 47.2696 61.074 46.377C61.0734 46.1763 58.3934 31.2371 57.2905 23.7076C56.8619 20.771 56.0896 20.259 54.8594 19.6951C54.214 19.401 49.1837 17.9146 47.3017 17.9154ZM50.2226 25.8424C50.4633 25.8449 50.7688 25.9305 51.1549 26.0501C51.7817 26.2419 52.1797 26.9505 52.2949 28.0953C52.344 28.6335 53.3275 35.6357 53.3275 36.0224C53.3281 36.4485 52.8943 36.6851 51.3886 36.8591C50.5096 36.9614 49.6048 36.9382 49.3445 36.9382C48.8442 36.9388 47.6702 36.7437 47.841 35.7415C47.891 35.4233 49.3943 27.1326 49.4708 26.7523C49.5982 26.0655 49.8214 25.8382 50.2226 25.8424Z" fill="white"/>
</g>
<defs>
<clipPath id="clip0_3265_1294">
<rect width="164.533" height="70" fill="white" transform="translate(0.37207 0.5)"/>
</clipPath>
</defs>
</svg>
