<svg width="119" height="23" viewBox="0 0 119 23" fill="none" xmlns="http://www.w3.org/2000/svg">
<path d="M6.96611 0.503456H10.3261L16.5901 17.5435H13.1821L11.5981 13.2955H5.64611L4.08611 17.5435H0.678105L6.96611 0.503456ZM10.9981 10.9675L8.64611 3.93546L6.19811 10.9675H10.9981ZM22.5916 17.7835C21.5196 17.7835 20.4956 17.6075 19.5196 17.2555C18.5436 16.9035 17.7036 16.3835 16.9996 15.6955L18.1516 13.6075C18.9036 14.2155 19.6396 14.6635 20.3596 14.9515C21.0956 15.2395 21.7996 15.3835 22.4716 15.3835C23.0956 15.3835 23.5916 15.2715 23.9596 15.0475C24.3436 14.8235 24.5356 14.4875 24.5356 14.0395C24.5356 13.7355 24.4316 13.5035 24.2236 13.3435C24.0156 13.1675 23.7116 13.0155 23.3116 12.8875C22.9276 12.7595 22.4556 12.6155 21.8956 12.4555C20.9676 12.1515 20.1916 11.8555 19.5676 11.5675C18.9436 11.2795 18.4716 10.9195 18.1516 10.4875C17.8476 10.0395 17.6956 9.47146 17.6956 8.78346C17.6956 7.95146 17.9036 7.23946 18.3196 6.64746C18.7516 6.03946 19.3436 5.56746 20.0956 5.23146C20.8636 4.89546 21.7596 4.72746 22.7836 4.72746C23.6796 4.72746 24.5276 4.87146 25.3276 5.15946C26.1276 5.43146 26.8556 5.87946 27.5116 6.50346L26.2156 8.54346C25.5756 8.04746 24.9676 7.68746 24.3916 7.46346C23.8156 7.22346 23.2316 7.10346 22.6396 7.10346C22.3036 7.10346 21.9836 7.14346 21.6796 7.22346C21.3916 7.30346 21.1516 7.43946 20.9596 7.63146C20.7836 7.80746 20.6956 8.06346 20.6956 8.39946C20.6956 8.70346 20.7756 8.94346 20.9356 9.11946C21.1116 9.27946 21.3676 9.42346 21.7036 9.55146C22.0556 9.67946 22.4796 9.82346 22.9756 9.98346C23.9836 10.2715 24.8316 10.5675 25.5196 10.8715C26.2236 11.1755 26.7516 11.5515 27.1036 11.9995C27.4556 12.4315 27.6316 13.0315 27.6316 13.7995C27.6316 15.0475 27.1756 16.0235 26.2636 16.7275C25.3516 17.4315 24.1276 17.7835 22.5916 17.7835ZM28.955 13.8235C28.955 13.0075 29.179 12.2955 29.627 11.6875C30.091 11.0635 30.731 10.5835 31.547 10.2475C32.363 9.91146 33.299 9.74346 34.355 9.74346C34.883 9.74346 35.419 9.78346 35.963 9.86346C36.507 9.94346 36.979 10.0715 37.379 10.2475V9.57546C37.379 8.77546 37.139 8.15946 36.659 7.72746C36.195 7.29546 35.499 7.07946 34.571 7.07946C33.883 7.07946 33.227 7.19946 32.603 7.43946C31.979 7.67946 31.323 8.03146 30.635 8.49546L29.603 6.38346C30.435 5.83946 31.283 5.43146 32.147 5.15946C33.027 4.88746 33.947 4.75146 34.907 4.75146C36.699 4.75146 38.091 5.19946 39.083 6.09546C40.091 6.99146 40.595 8.27146 40.595 9.93546V13.9435C40.595 14.2795 40.651 14.5195 40.763 14.6635C40.891 14.8075 41.091 14.8955 41.363 14.9275V17.5435C41.075 17.5915 40.811 17.6315 40.571 17.6635C40.347 17.6955 40.155 17.7115 39.995 17.7115C39.355 17.7115 38.867 17.5675 38.531 17.2795C38.211 16.9915 38.011 16.6395 37.931 16.2235L37.859 15.5755C37.315 16.2795 36.635 16.8235 35.819 17.2075C35.003 17.5915 34.171 17.7835 33.323 17.7835C32.491 17.7835 31.739 17.6155 31.067 17.2795C30.411 16.9275 29.891 16.4555 29.507 15.8635C29.139 15.2555 28.955 14.5755 28.955 13.8235ZM36.779 14.4715C36.955 14.2795 37.099 14.0875 37.211 13.8955C37.323 13.7035 37.379 13.5275 37.379 13.3675V12.0955C36.995 11.9355 36.579 11.8155 36.131 11.7355C35.683 11.6395 35.259 11.5915 34.859 11.5915C34.027 11.5915 33.339 11.7755 32.795 12.1435C32.267 12.4955 32.003 12.9675 32.003 13.5595C32.003 13.8795 32.091 14.1835 32.267 14.4715C32.443 14.7595 32.699 14.9915 33.035 15.1675C33.371 15.3435 33.771 15.4315 34.235 15.4315C34.715 15.4315 35.187 15.3435 35.651 15.1675C36.115 14.9755 36.491 14.7435 36.779 14.4715ZM56.7579 17.6635C55.6539 17.6635 54.6059 17.4395 53.6139 16.9915C52.6379 16.5435 51.7739 15.9275 51.0219 15.1435C50.2859 14.3435 49.7099 13.4155 49.2939 12.3595C48.8779 11.3035 48.6699 10.1595 48.6699 8.92746C48.6699 7.75946 48.8779 6.66346 49.2939 5.63946C49.7099 4.59946 50.2939 3.68746 51.0459 2.90346C51.7979 2.11946 52.6779 1.50346 53.6859 1.05546C54.6939 0.607456 55.7899 0.383456 56.9739 0.383456C58.5739 0.383456 59.9419 0.727456 61.0779 1.41546C62.2299 2.08746 63.0939 2.98346 63.6699 4.10346L61.1979 5.92746C60.7659 5.07946 60.1579 4.43146 59.3739 3.98346C58.6059 3.53546 57.7659 3.31146 56.8539 3.31146C56.1339 3.31146 55.4779 3.46346 54.8859 3.76746C54.2939 4.07146 53.7819 4.48746 53.3499 5.01546C52.9179 5.54346 52.5819 6.15146 52.3419 6.83946C52.1179 7.52746 52.0059 8.25546 52.0059 9.02346C52.0059 9.83946 52.1259 10.5915 52.3659 11.2795C52.6219 11.9675 52.9739 12.5675 53.4219 13.0795C53.8859 13.5915 54.4219 13.9995 55.0299 14.3035C55.6379 14.5915 56.3099 14.7355 57.0459 14.7355C57.9099 14.7355 58.7339 14.5115 59.5179 14.0635C60.3179 13.6155 61.0619 12.9595 61.7499 12.0955V15.3595C60.3259 16.8955 58.6619 17.6635 56.7579 17.6635ZM61.5099 11.2075H58.0779V8.78346H64.2459V17.5435H61.5099V11.2075ZM74.2445 7.75146C73.2685 7.75146 72.3965 7.94346 71.6285 8.32746C70.8605 8.69546 70.3085 9.23146 69.9725 9.93546V17.5435H66.7565V4.96746H69.7085V7.65546C70.1565 6.79146 70.7245 6.11146 71.4125 5.61546C72.1005 5.11946 72.8285 4.84746 73.5965 4.79946C73.7725 4.79946 73.9085 4.79946 74.0045 4.79946C74.1005 4.79946 74.1805 4.80746 74.2445 4.82346V7.75146ZM81.6817 17.7835C80.6577 17.7835 79.7377 17.6155 78.9217 17.2795C78.1057 16.9275 77.4097 16.4475 76.8337 15.8395C76.2737 15.2315 75.8417 14.5355 75.5377 13.7515C75.2337 12.9675 75.0817 12.1435 75.0817 11.2795C75.0817 10.3995 75.2337 9.56746 75.5377 8.78346C75.8417 7.99946 76.2737 7.30346 76.8337 6.69546C77.4097 6.08746 78.1057 5.61546 78.9217 5.27946C79.7377 4.92746 80.6577 4.75146 81.6817 4.75146C82.7057 4.75146 83.6177 4.92746 84.4177 5.27946C85.2337 5.61546 85.9297 6.08746 86.5057 6.69546C87.0817 7.30346 87.5137 7.99946 87.8017 8.78346C88.1057 9.56746 88.2577 10.3995 88.2577 11.2795C88.2577 12.1435 88.1057 12.9675 87.8017 13.7515C87.5137 14.5355 87.0817 15.2315 86.5057 15.8395C85.9457 16.4475 85.2577 16.9275 84.4417 17.2795C83.6257 17.6155 82.7057 17.7835 81.6817 17.7835ZM78.3937 11.2795C78.3937 12.0155 78.5377 12.6715 78.8257 13.2475C79.1137 13.8075 79.5057 14.2475 80.0017 14.5675C80.4977 14.8875 81.0577 15.0475 81.6817 15.0475C82.2897 15.0475 82.8417 14.8875 83.3377 14.5675C83.8337 14.2315 84.2257 13.7835 84.5137 13.2235C84.8177 12.6475 84.9697 11.9915 84.9697 11.2555C84.9697 10.5355 84.8177 9.88746 84.5137 9.31146C84.2257 8.73546 83.8337 8.28746 83.3377 7.96746C82.8417 7.64746 82.2897 7.48746 81.6817 7.48746C81.0577 7.48746 80.4977 7.65546 80.0017 7.99146C79.5057 8.31146 79.1137 8.75946 78.8257 9.33546C78.5377 9.89546 78.3937 10.5435 78.3937 11.2795ZM90.3084 12.8395V4.96746H93.5244V12.1435C93.5244 13.1035 93.7004 13.8315 94.0524 14.3275C94.4044 14.8075 94.9244 15.0475 95.6124 15.0475C96.0284 15.0475 96.4364 14.9675 96.8364 14.8075C97.2524 14.6315 97.6284 14.3755 97.9644 14.0395C98.3164 13.7035 98.6124 13.2795 98.8524 12.7675V4.96746H102.068V13.9435C102.068 14.2795 102.124 14.5195 102.236 14.6635C102.364 14.8075 102.564 14.8955 102.836 14.9275V17.5435C102.516 17.5915 102.244 17.6235 102.02 17.6395C101.812 17.6715 101.62 17.6875 101.444 17.6875C100.868 17.6875 100.396 17.5595 100.028 17.3035C99.6764 17.0315 99.4684 16.6635 99.4044 16.1995L99.3324 15.1915C98.7724 16.0395 98.0524 16.6875 97.1724 17.1355C96.2924 17.5675 95.3244 17.7835 94.2684 17.7835C92.9724 17.7835 91.9884 17.3675 91.3164 16.5355C90.6444 15.6875 90.3084 14.4555 90.3084 12.8395ZM112.8 17.7835C111.824 17.7835 110.96 17.5675 110.208 17.1355C109.472 16.6875 108.896 16.0875 108.48 15.3355V22.6555H105.264V4.96746H108.072V7.12746C108.552 6.39146 109.16 5.81546 109.896 5.39946C110.632 4.96746 111.472 4.75146 112.416 4.75146C113.264 4.75146 114.04 4.91946 114.744 5.25546C115.464 5.59146 116.088 6.06346 116.616 6.67146C117.144 7.26346 117.552 7.95146 117.84 8.73546C118.144 9.50346 118.296 10.3355 118.296 11.2315C118.296 12.4475 118.056 13.5515 117.576 14.5435C117.112 15.5355 116.464 16.3275 115.632 16.9195C114.816 17.4955 113.872 17.7835 112.8 17.7835ZM111.72 15.0475C112.216 15.0475 112.664 14.9435 113.064 14.7355C113.464 14.5275 113.808 14.2475 114.096 13.8955C114.4 13.5275 114.624 13.1195 114.768 12.6715C114.928 12.2075 115.008 11.7275 115.008 11.2315C115.008 10.7035 114.92 10.2155 114.744 9.76746C114.584 9.31946 114.344 8.92746 114.024 8.59146C113.704 8.23946 113.328 7.96746 112.896 7.77546C112.48 7.58346 112.024 7.48746 111.528 7.48746C111.224 7.48746 110.912 7.54346 110.592 7.65546C110.288 7.75146 109.992 7.89546 109.704 8.08746C109.416 8.27946 109.16 8.50346 108.936 8.75946C108.728 9.01546 108.576 9.29546 108.48 9.59946V12.5515C108.672 13.0155 108.928 13.4395 109.248 13.8235C109.584 14.2075 109.968 14.5115 110.4 14.7355C110.832 14.9435 111.272 15.0475 111.72 15.0475Z" fill="#1D1D1B"/>
</svg>
