<svg width="126" height="101" viewBox="0 0 126 101" fill="none" xmlns="http://www.w3.org/2000/svg">
<path d="M26.359 92.6078C24.7564 92.6078 23.5859 93.421 23.5859 94.9773C23.5859 96.4351 24.6033 97.4511 26.1304 97.4511C27.1487 97.4511 28.1671 96.8817 28.8027 96.0674V93.9915C28.8027 93.2991 27.9113 92.6078 26.359 92.6078ZM60.9987 92.3201C61.0743 95.0524 62.8058 97.0289 65.7834 97.0289C67.5914 97.0289 68.9664 96.0431 69.4489 95.4239C69.6776 95.5975 69.9082 95.8568 69.9082 96.4604C69.9082 97.8197 68.2784 99.6997 64.486 99.6997C60.6693 99.6997 57.5619 96.6369 57.5619 92.6331C57.5619 88.2247 60.4387 85.0742 64.6904 85.0742C68.5555 85.0742 70.3393 87.939 70.3393 90.3787C70.3393 91.0983 70.1862 91.7643 69.8801 92.3201H60.9987ZM66.3957 90.5542C67.0062 90.5542 67.0323 90.1944 67.0323 89.7127C67.0062 88.2754 65.8841 86.9444 64.1807 86.9444C61.9667 86.9444 61.1005 88.8117 61.0249 90.5542H66.3957ZM102.306 92.0617C102.306 95.4005 102.766 97.102 104.905 97.102C107.242 97.102 107.882 95.0017 107.882 93.0934V89.4514C107.882 88.2003 107.293 87.7147 105.946 87.861C105.387 86.4549 107.242 85.5598 108.29 85.354C108.617 85.3033 108.925 85.2526 109.207 85.2526C110.681 85.2526 111.247 86.178 111.247 87.5607C111.247 88.0687 111.198 88.995 111.198 92.8272C111.198 94.4478 111.172 95.303 111.172 95.5711C111.172 96.8329 111.752 97.4755 113.098 97.3283C113.649 98.7373 111.805 99.4052 110.753 99.6012C110.43 99.65 110.137 99.6997 109.894 99.6997C108.495 99.6997 108.211 98.786 107.929 97.4765C107.732 97.7222 107.55 97.9231 107.17 98.2917C106.253 99.1556 105.058 99.6753 103.707 99.6753C102.23 99.6753 100.983 99.1049 100.193 98.1688C98.9726 96.711 98.9726 94.832 98.9726 92.0881V89.4524C98.9726 88.2013 98.3863 87.7157 97.0385 87.862C96.4785 86.4559 98.3379 85.5607 99.3805 85.355C99.7109 85.3043 100.015 85.2536 100.296 85.2536C101.771 85.2536 102.332 86.1789 102.332 87.5616L102.306 92.0617ZM95.8681 92.3484C95.8681 88.017 92.8905 85.0732 88.7667 85.0732C84.95 85.0732 81.5636 88.017 81.5636 92.3484C81.5636 96.7344 84.7446 99.6743 88.6398 99.6743C92.7616 99.6743 95.8681 96.6857 95.8681 92.3484ZM31.9847 96.165C31.9847 97.2697 32.6959 97.6218 33.9439 97.7953C33.8674 99.0786 32.976 99.5759 31.9334 99.6743C30.7619 99.7728 29.6166 99.2268 29.1593 97.9962C28.6235 98.4857 27.046 99.7231 24.9841 99.7231C22.1596 99.7231 20.0464 97.8187 20.0464 95.225C20.0464 92.483 22.4135 90.8585 25.7476 90.8585C26.8949 90.8585 28.0886 91.0983 28.8018 91.4698V89.6337C28.8018 87.9887 28.0886 86.9444 26.2321 86.9444C25.8494 86.9444 25.0103 87.0458 24.3475 87.2993C24.4241 87.5597 24.4764 87.8376 24.4764 88.0931C24.4764 89.0974 23.8398 89.9116 22.7711 89.9116C21.8283 89.9116 21.1151 89.1472 21.1151 88.1711C21.1151 86.3779 23.3563 85.0722 26.4618 85.0722C28.9306 85.0722 30.4334 85.6612 31.2222 86.6841C31.9334 87.5841 31.9847 88.9677 31.9847 90.9647V96.165ZM92.2287 92.559C92.2287 95.8871 90.8024 97.6959 88.7928 97.6959C87.011 97.6959 85.2804 95.888 85.2804 91.9408C85.2804 88.8654 86.5527 86.9454 88.6398 86.9454C90.7007 86.9443 92.2287 89.073 92.2287 92.559ZM42.0627 87.507C42.1392 88.3807 42.8776 88.9931 43.7419 88.9931C44.8368 88.9931 45.4986 88.016 45.4986 87.0702C45.4986 85.7372 44.4298 85.0469 43.3601 85.0469C42.1392 85.0469 40.8409 85.9703 40.1035 87.351L40.0521 87.3764C39.8235 86.1497 39.2373 85.2243 38.0154 85.2243C37.7354 85.2243 37.4302 85.277 37.0998 85.3784C36.0814 85.6856 34.5796 86.4773 35.1406 87.8854C36.5659 87.6094 37.0746 88.0921 37.0746 89.3432V95.3C37.0746 96.4828 36.9225 96.9782 36.5145 97.3253C36.1318 97.6198 35.7258 97.7417 35.471 97.7924C34.8857 99.0756 36.031 99.4754 38.8565 99.4754C41.6819 99.4754 42.6489 99.0766 42.0637 97.7924C41.8088 97.7407 41.0967 97.6188 40.7149 97.3253C40.307 96.9782 40.1297 96.4828 40.1297 95.3V91.7068C40.1286 88.5036 41.2992 87.6611 42.0627 87.507ZM77.0851 85.4301H80.7245C81.1576 86.4783 80.5723 87.3237 79.7575 87.4017C79.5026 87.429 79.2226 87.429 78.9687 87.429C78.306 87.429 77.6452 87.3764 77.1869 87.3764V95.301C77.1869 96.4838 77.3903 96.9792 77.7973 97.3263C78.18 97.6208 79.0714 97.7427 79.3263 97.7934C79.9115 99.0766 78.5356 99.4764 75.7112 99.4764C72.8867 99.4764 71.7162 99.0776 72.3005 97.7934C72.5543 97.7417 72.9632 97.6198 73.344 97.3263C73.751 96.9792 73.9031 96.4838 73.9031 95.301V87.3227L71.7656 87.2467C71.3325 86.2004 71.9177 85.4554 72.783 85.4554H73.8537V84.4306C73.8537 82.3556 74.2345 81.202 74.7442 80.4337C75.5319 79.2041 76.8816 78.3596 78.993 78.3596C81.6663 78.3596 83.8289 79.6146 83.8289 81.5092C83.8289 82.3293 83.2689 83.3278 82.0984 83.3278C81.2341 83.3278 80.4192 82.5847 80.4192 81.6642C80.4192 81.2781 80.5723 80.8686 80.7749 80.6141C80.4706 80.2552 79.834 80.0748 79.2226 80.0748C77.4659 80.0748 77.0851 81.3815 77.0851 83.0206V85.4301ZM53.6435 87.507C53.72 88.3807 54.4584 88.9931 55.3236 88.9931C56.4185 88.9931 57.0794 88.016 57.0794 87.0702C57.0794 85.7372 56.0106 85.0469 54.9419 85.0469C53.72 85.0469 52.4217 85.9703 51.6853 87.351L51.6329 87.3764C51.4052 86.1497 50.819 85.2243 49.5972 85.2243C49.3181 85.2243 49.0119 85.277 48.6815 85.3784C47.6622 85.6856 46.1603 86.4773 46.7214 87.8854C48.1467 87.6094 48.6544 88.0921 48.6544 89.3432V95.3C48.6544 96.4828 48.5033 96.9782 48.0953 97.3253C47.7136 97.6198 47.3076 97.7417 47.0537 97.7924C46.4675 99.0756 47.6138 99.4754 50.4373 99.4754C53.2617 99.4754 54.2307 99.0766 53.6445 97.7924C53.3906 97.7407 52.6784 97.6188 52.2957 97.3253C51.8887 96.9782 51.7105 96.4828 51.7105 95.3V91.7068C51.7094 88.5036 52.88 87.6611 53.6435 87.507ZM121.384 87.507C121.469 88.3807 122.214 88.9931 123.083 88.9931C124.162 88.9931 124.824 88.016 124.824 87.0702C124.824 85.7372 123.771 85.0469 122.686 85.0469C121.469 85.0469 120.186 85.9703 119.45 87.351L119.376 87.3764C119.153 86.1497 118.562 85.2243 117.362 85.2243C117.064 85.2243 116.774 85.277 116.425 85.3784C115.421 85.6856 113.924 86.4773 114.47 87.8854C115.9 87.6094 116.401 88.0921 116.401 89.3432V95.3C116.401 96.4828 116.255 96.9782 115.834 97.3253C115.469 97.6198 115.049 97.7417 114.806 97.7924C114.215 99.0756 115.371 99.4754 118.194 99.4754C121.019 99.4754 121.974 99.0766 121.383 97.7924C121.141 97.7407 120.429 97.6188 120.033 97.3253C119.645 96.9782 119.473 96.4828 119.473 95.3V91.7068C119.474 88.5036 120.625 87.6611 121.384 87.507Z" fill="#005BAB"/>
<path d="M26.359 92.6078C24.7564 92.6078 23.5859 93.421 23.5859 94.9773C23.5859 96.4351 24.6033 97.4511 26.1304 97.4511C27.1487 97.4511 28.1671 96.8817 28.8027 96.0674V93.9915C28.8027 93.2991 27.9113 92.6078 26.359 92.6078V92.6078ZM60.9987 92.3201C61.0743 95.0524 62.8058 97.0289 65.7834 97.0289C67.5914 97.0289 68.9663 96.0431 69.4489 95.4239C69.6776 95.5975 69.9082 95.8568 69.9082 96.4604C69.9082 97.8197 68.2784 99.6997 64.486 99.6997C60.6693 99.6997 57.5619 96.6369 57.5619 92.6331C57.5619 88.2247 60.4387 85.0742 64.6904 85.0742C68.5555 85.0742 70.3393 87.939 70.3393 90.3787C70.3393 91.0983 70.1862 91.7643 69.8801 92.3201H60.9987V92.3201ZM66.3957 90.5542C67.0062 90.5542 67.0323 90.1944 67.0323 89.7127C67.0062 88.2754 65.8841 86.9444 64.1807 86.9444C61.9667 86.9444 61.1005 88.8117 61.0249 90.5542H66.3957V90.5542ZM102.306 92.0617C102.306 95.4005 102.766 97.102 104.905 97.102C107.242 97.102 107.882 95.0017 107.882 93.0934V89.4514C107.882 88.2003 107.293 87.7147 105.946 87.861C105.387 86.4549 107.242 85.5598 108.291 85.354C108.617 85.3033 108.925 85.2526 109.207 85.2526C110.681 85.2526 111.247 86.178 111.247 87.5607C111.247 88.0687 111.198 88.995 111.198 92.8272C111.198 94.4478 111.172 95.303 111.172 95.5711C111.172 96.8329 111.752 97.4755 113.098 97.3283C113.649 98.7373 111.805 99.4052 110.753 99.6012C110.43 99.65 110.137 99.6997 109.894 99.6997C108.495 99.6997 108.211 98.786 107.929 97.4765C107.732 97.7222 107.55 97.9231 107.17 98.2917C106.253 99.1556 105.058 99.6753 103.707 99.6753C102.23 99.6753 100.983 99.1049 100.193 98.1688C98.9726 96.711 98.9726 94.832 98.9726 92.0881V89.4524C98.9726 88.2013 98.3863 87.7157 97.0385 87.862C96.4785 86.4559 98.3379 85.5607 99.3805 85.355C99.7109 85.3043 100.015 85.2536 100.296 85.2536C101.771 85.2536 102.332 86.1789 102.332 87.5616L102.306 92.0617V92.0617ZM95.8681 92.3484C95.8681 88.017 92.8905 85.0732 88.7667 85.0732C84.95 85.0732 81.5636 88.017 81.5636 92.3484C81.5636 96.7344 84.7446 99.6743 88.6398 99.6743C92.7616 99.6743 95.8681 96.6857 95.8681 92.3484V92.3484ZM31.9847 96.165C31.9847 97.2697 32.6959 97.6218 33.9439 97.7953C33.8674 99.0786 32.976 99.5759 31.9334 99.6743C30.7619 99.7728 29.6166 99.2268 29.1593 97.9962C28.6235 98.4857 27.046 99.7231 24.9841 99.7231C22.1596 99.7231 20.0464 97.8187 20.0464 95.225C20.0464 92.483 22.4145 90.8585 25.7476 90.8585C26.8949 90.8585 28.0886 91.0983 28.8018 91.4698V89.6337C28.8018 87.9887 28.0886 86.9444 26.2321 86.9444C25.8494 86.9444 25.0103 87.0458 24.3475 87.2993C24.4241 87.5597 24.4764 87.8376 24.4764 88.0931C24.4764 89.0974 23.8398 89.9116 22.7711 89.9116C21.8283 89.9116 21.1151 89.1472 21.1151 88.1711C21.1151 86.3779 23.3563 85.0722 26.4618 85.0722C28.9306 85.0722 30.4335 85.6612 31.2222 86.6841C31.9334 87.5841 31.9847 88.9677 31.9847 90.9647V96.165V96.165ZM92.2287 92.559C92.2287 95.8871 90.8024 97.6959 88.7928 97.6959C87.011 97.6959 85.2804 95.888 85.2804 91.9408C85.2804 88.8654 86.5526 86.9454 88.6398 86.9454C90.7007 86.9443 92.2287 89.073 92.2287 92.559ZM42.0627 87.507C42.1392 88.3807 42.8776 88.9931 43.7419 88.9931C44.8368 88.9931 45.4986 88.016 45.4986 87.0702C45.4986 85.7372 44.4298 85.0469 43.3601 85.0469C42.1392 85.0469 40.8409 85.9703 40.1035 87.351L40.0521 87.3764C39.8235 86.1497 39.2373 85.2243 38.0154 85.2243C37.7354 85.2243 37.4302 85.277 37.0998 85.3784C36.0814 85.6856 34.5796 86.4773 35.1406 87.8854C36.5659 87.6094 37.0746 88.0921 37.0746 89.3432V95.3C37.0746 96.4828 36.9225 96.9782 36.5145 97.3253C36.1318 97.6198 35.7258 97.7417 35.471 97.7924C34.8857 99.0756 36.031 99.4754 38.8565 99.4754C41.6819 99.4754 42.6489 99.0766 42.0637 97.7924C41.8088 97.7407 41.0967 97.6188 40.7149 97.3253C40.307 96.9782 40.1297 96.4828 40.1297 95.3V91.7068C40.1286 88.5036 41.2992 87.6611 42.0627 87.507V87.507ZM77.0851 85.4301H80.7245C81.1576 86.4783 80.5723 87.3237 79.7575 87.4017C79.5026 87.429 79.2226 87.429 78.9687 87.429C78.306 87.429 77.6452 87.3764 77.1869 87.3764V95.301C77.1869 96.4838 77.3903 96.9792 77.7973 97.3263C78.18 97.6208 79.0714 97.7427 79.3263 97.7934C79.9115 99.0766 78.5356 99.4764 75.7112 99.4764C72.8867 99.4764 71.7162 99.0776 72.3005 97.7934C72.5543 97.7417 72.9632 97.6198 73.344 97.3263C73.751 96.9792 73.9031 96.4838 73.9031 95.301V87.3227L71.7656 87.2467C71.3325 86.2004 71.9177 85.4554 72.783 85.4554H73.8537V84.4306C73.8537 82.3556 74.2345 81.202 74.7442 80.4337C75.5319 79.2041 76.8816 78.3596 78.993 78.3596C81.6663 78.3596 83.8289 79.6146 83.8289 81.5092C83.8289 82.3293 83.2689 83.3278 82.0984 83.3278C81.2341 83.3278 80.4192 82.5847 80.4192 81.6642C80.4192 81.2781 80.5723 80.8686 80.7749 80.6141C80.4706 80.2552 79.834 80.0748 79.2226 80.0748C77.4659 80.0748 77.0851 81.3815 77.0851 83.0206V85.4301V85.4301ZM53.6435 87.507C53.72 88.3807 54.4584 88.9931 55.3236 88.9931C56.4185 88.9931 57.0794 88.016 57.0794 87.0702C57.0794 85.7372 56.0106 85.0469 54.9419 85.0469C53.72 85.0469 52.4217 85.9703 51.6853 87.351L51.6329 87.3764C51.4052 86.1497 50.819 85.2243 49.5972 85.2243C49.3181 85.2243 49.0119 85.277 48.6815 85.3784C47.6622 85.6856 46.1603 86.4773 46.7214 87.8854C48.1467 87.6094 48.6544 88.0921 48.6544 89.3432V95.3C48.6544 96.4828 48.5033 96.9782 48.0953 97.3253C47.7136 97.6198 47.3076 97.7417 47.0537 97.7924C46.4675 99.0756 47.6138 99.4754 50.4373 99.4754C53.2617 99.4754 54.2307 99.0766 53.6445 97.7924C53.3906 97.7407 52.6784 97.6188 52.2957 97.3253C51.8887 96.9782 51.7105 96.4828 51.7105 95.3V91.7068C51.7094 88.5036 52.88 87.6611 53.6435 87.507V87.507ZM121.384 87.507C121.469 88.3807 122.214 88.9931 123.083 88.9931C124.162 88.9931 124.824 88.016 124.824 87.0702C124.824 85.7372 123.771 85.0469 122.686 85.0469C121.469 85.0469 120.186 85.9703 119.45 87.351L119.376 87.3764C119.153 86.1497 118.562 85.2243 117.362 85.2243C117.064 85.2243 116.774 85.277 116.425 85.3784C115.421 85.6856 113.924 86.4773 114.47 87.8854C115.9 87.6094 116.401 88.0921 116.401 89.3432V95.3C116.401 96.4828 116.255 96.9782 115.834 97.3253C115.469 97.6198 115.049 97.7417 114.806 97.7924C114.215 99.0756 115.371 99.4754 118.194 99.4754C121.019 99.4754 121.974 99.0766 121.383 97.7924C121.141 97.7407 120.429 97.6188 120.033 97.3253C119.645 96.9782 119.473 96.4828 119.473 95.3V91.7068C119.474 88.5036 120.625 87.6611 121.384 87.507V87.507Z" stroke="#005BAB" stroke-width="1.482"/>
<path d="M1.19849 89.5157C1.19849 95.9796 5.62558 99.8079 10.4364 99.8079C14.7637 99.8079 17.7916 96.7461 17.7916 94.1972C17.7916 92.8398 16.9525 91.853 15.8576 91.853C14.7375 91.853 13.7967 92.6175 13.7967 93.931C13.7967 94.7695 14.254 95.2386 14.5854 95.6081C13.9992 96.747 12.7522 97.6841 10.8172 97.6841C7.61095 97.6841 5.29517 94.3229 5.29517 89.4894C5.29517 84.6499 7.50824 81.2683 10.7164 81.2683C12.6514 81.2683 13.8974 82.2161 14.4837 83.3443C14.1523 83.7275 13.6949 84.1887 13.6949 85.0341C13.6949 86.3408 14.6367 87.1082 15.7568 87.1082C16.8518 87.1082 17.6899 86.1126 17.6899 84.7523C17.6899 82.2151 14.6619 79.1426 10.3346 79.1426C5.52288 79.1415 1.19849 83.3433 1.19849 89.5157Z" fill="#005BAB"/>
<path d="M1.19849 89.5157C1.19849 95.9796 5.62558 99.8079 10.4364 99.8079C14.7637 99.8079 17.7916 96.7461 17.7916 94.1972C17.7916 92.8398 16.9525 91.853 15.8576 91.853C14.7375 91.853 13.7967 92.6175 13.7967 93.931C13.7967 94.7695 14.254 95.2386 14.5854 95.6081C13.9992 96.747 12.7522 97.6841 10.8172 97.6841C7.61095 97.6841 5.29517 94.3229 5.29517 89.4894C5.29517 84.6499 7.50824 81.2683 10.7164 81.2683C12.6514 81.2683 13.8974 82.2161 14.4837 83.3443C14.1523 83.7275 13.6949 84.1887 13.6949 85.0341C13.6949 86.3408 14.6367 87.1082 15.7568 87.1082C16.8518 87.1082 17.6899 86.1126 17.6899 84.7523C17.6899 82.2151 14.6619 79.1426 10.3346 79.1426C5.52288 79.1415 1.19849 83.3433 1.19849 89.5157V89.5157Z" stroke="#005BAB" stroke-width="1.8548"/>
<path d="M42.8862 2.23056L15.8808 28.5222C14.532 29.6748 13.6707 31.0282 13.6707 32.9648C13.6707 34.8925 14.533 36.2508 15.8808 37.4122L42.8862 63.6951C43.0596 63.8735 43.2273 63.9447 43.3697 63.9447C43.6255 63.9447 43.8019 63.7107 43.7941 63.4357C43.7864 63.2738 43.7166 63.0876 43.5567 62.9267C37.2179 55.0011 32.6057 45.9112 32.6057 33.0603C32.6057 20.2017 37.2179 10.9333 43.5567 3.00186C43.7166 2.84292 43.7864 2.6596 43.7941 2.49383C43.8028 2.213 43.6255 1.98581 43.3697 1.98581C43.2273 1.98288 43.0596 2.05309 42.8862 2.23056Z" fill="#ED1C24"/>
<path d="M63.6478 0.00439453C53.0737 0.00439453 48.9421 15.0843 48.9421 33.0584C48.9421 51.0382 53.0737 65.9173 63.6478 65.9173C69.9934 65.9173 75.402 62.1778 75.4195 59.1043C75.4224 58.4315 75.1646 57.7869 74.6036 57.2243C71.596 54.3 70.4197 51.3776 70.411 48.7984C70.3916 43.8752 74.6356 40.2078 78.5482 40.2078C83.9268 40.2078 87.0991 44.4622 87.0991 49.9715C87.0991 55.1922 84.8889 59.5401 82.484 63.0222C82.3891 63.1646 82.3464 63.3235 82.3464 63.463C82.3483 63.736 82.5082 63.9603 82.7476 63.9603C82.8929 63.9603 83.0634 63.8823 83.2495 63.6941L110.262 37.4112C111.61 36.2508 112.472 34.8915 112.472 32.9638C112.472 31.0282 111.609 29.6738 110.262 28.5212L83.2495 2.22957C83.0644 2.04333 82.8939 1.96435 82.7476 1.96435C82.5063 1.96435 82.3484 2.19057 82.3464 2.46457C82.3464 2.60499 82.3891 2.76198 82.484 2.90629C84.888 6.3835 87.0991 10.7364 87.0991 15.9531C87.0991 21.4586 83.9268 25.7168 78.5482 25.7168C74.6356 25.7168 70.3916 22.0524 70.411 17.1281C70.4197 14.549 71.596 11.6237 74.6036 8.70229C75.1646 8.13673 75.4224 7.49804 75.4195 6.82425C75.402 3.74586 69.9934 0.00439453 63.6478 0.00439453Z" fill="#005BAB"/>
</svg>
