<svg width="88" height="37" viewBox="0 0 88 37" fill="none" xmlns="http://www.w3.org/2000/svg">
<g clip-path="url(#clip0_3265_1341)">
<path d="M61.6068 0.849487C51.8503 0.849487 43.9037 8.75692 43.9037 18.5C43.9037 28.2481 51.8503 36.1505 61.6068 36.1505C71.37 36.1505 79.2573 28.2481 79.2573 18.5C79.2591 8.75692 71.37 0.849487 61.6068 0.849487ZM135.728 0.849487C125.967 0.849487 118.025 8.75692 118.025 18.5C118.025 28.2481 125.967 36.1505 135.728 36.1505C145.492 36.1505 153.379 28.2481 153.379 18.5C153.379 8.75692 145.492 0.849487 135.728 0.849487ZM1.14331 1.74252L1.19584 3.21339C2.84658 3.21339 4.76797 3.80805 4.76797 6.31274V35.31H7.65718V10.4102L19.7919 35.31H21.2102L33.2924 7.78362V35.31H38.2829V1.74252H32.7671L21.5254 27.4828L9.023 1.74252H1.14331ZM81.2535 1.74252V3.21339C82.8992 3.21339 84.8781 3.80805 84.8781 6.31274V35.31H87.7673V8.15133L111.722 36.1505H112.615V1.74252H109.778L109.725 26.117L88.8705 1.74252H81.2535ZM155.428 1.74252V3.21339C157.077 3.21339 159 3.81309 159 6.31274V35.31H164.043V20.2861C166.403 20.6727 168.108 20.7769 169.559 20.7063C175.192 20.4323 180.327 16.9198 180.327 11.1456C180.327 5.18647 175.317 1.74252 169.453 1.74252H155.428V1.74252ZM182.744 1.74252V3.21339C184.391 3.21339 186.368 3.803 186.368 6.31274V35.31H191.359V19.6031C192.031 19.6435 192.826 19.6813 193.46 19.7082C194.894 19.8124 197.335 19.5649 200.027 24.2784C201.072 26.0973 205.805 34.5737 206.225 35.31H212.109C212.109 35.31 206.906 26.1683 205.805 24.331C204.484 22.1272 202.821 19.7414 200.289 18.8152C203.944 17.7998 207.696 15.1304 207.696 10.6203C207.696 4.75361 202.83 1.74252 196.822 1.74252H182.744V1.74252ZM214.105 1.74252V3.21339C215.752 3.21339 217.73 3.80805 217.73 6.31274V35.31H222.72V1.74252H214.105ZM227.5 1.74252V3.21339C228.632 3.21339 229.891 3.41679 230.652 4.47414L240.528 18.9728L228.393 35.31H231.966L242.262 21.4417L251.717 35.31H257.811L245.414 17.2392L256.918 1.74252H253.346L243.68 14.7177L234.802 1.74252H227.5ZM61.5542 2.89821C68.2967 2.89821 73.7415 8.20596 73.7415 18.5525C73.7415 28.8957 68.2967 34.1543 61.5542 34.1543C54.8118 34.1543 49.3145 28.894 49.3145 18.5525C49.3145 8.21269 54.8118 2.89821 61.5542 2.89821V2.89821ZM135.676 2.89821C142.418 2.89821 147.863 8.20596 147.863 18.5525C147.863 28.8957 142.418 34.1543 135.676 34.1543C128.923 34.1543 123.436 28.894 123.436 18.5525C123.436 8.21269 128.923 2.89821 135.676 2.89821V2.89821ZM190.939 3.73871H194.668C198.925 3.73871 202.391 5.37768 202.391 10.6728C202.392 15.8402 198.876 17.712 194.668 17.712C193.517 17.712 192.277 17.6212 191.359 17.5019V5.73489C191.359 4.21023 191.093 3.96228 190.939 3.73871ZM163.622 3.79124H167.3C171.561 3.79124 175.022 5.91392 175.022 11.0931C175.024 16.7883 171.514 18.6576 167.3 18.6576C166.152 18.6576 165.055 18.4811 164.043 18.2373V5.83995C164.043 4.31697 163.863 4.1392 163.622 3.79124Z" fill="#E30613"/>
</g>
<defs>
<clipPath id="clip0_3265_1341">
<rect width="257" height="37" fill="white" transform="translate(0.905273)"/>
</clipPath>
</defs>
</svg>
