<svg width="209" height="71" viewBox="0 0 209 71" fill="none" xmlns="http://www.w3.org/2000/svg">
<path d="M98.9835 43.3157L96.7146 54.6468C95.7159 59.2409 92.9485 62.3068 87.2956 62.3068C80.8068 62.3068 79.0945 58.2829 80.5179 52.6202C82.5328 44.5878 89.0855 42.1948 98.9835 43.3157ZM109.201 27.1151L102.304 27.5553L100.122 38.6498C97.4845 38.5567 96.6545 38.4734 93.5536 38.4734C83.8457 38.4734 75.373 42.5535 73.1351 52.1257C71.1183 60.7554 76.0207 67.4536 86.7119 67.4536C97.6629 67.4536 102.428 61.7406 104.14 53.7062L109.201 27.1151Z" fill="#2B3797"/>
<path d="M34.3653 43.7992C24.2502 42.878 15.5487 43.7177 15.4072 47.1522C15.188 52.3087 32.079 47.8096 31.7532 57.2964C31.278 71.2339 7.79169 68.0283 1.97974 66.2539L3.03469 62.1174C13.0548 63.7076 23.6257 63.8395 23.8584 58.3126C24.1067 52.4386 7.14592 57.7192 7.54347 48.2071C7.84018 41.1211 18.4402 37.3007 35.7907 39.8489L34.3653 43.7992Z" fill="#2B3797"/>
<path d="M61.6395 53.2802C60.1792 59.098 55.5657 62.7515 50.0718 62.7515C44.3277 62.7515 41.7427 59.4218 43.2825 53.2802C44.7447 47.4624 49.4125 43.5568 54.9044 43.5568C60.3925 43.5568 63.0998 47.4624 61.6395 53.2802ZM55.7887 38.7939C45.7298 38.7939 37.6431 44.6137 35.6554 53.2802C33.6618 61.9526 39.0782 67.7703 49.1332 67.7703C59.1883 67.7703 67.2769 61.9526 69.2666 53.2802C71.2602 44.6137 65.8457 38.7939 55.7887 38.7939Z" fill="#2B3797"/>
<path d="M172.012 67.6232H163.268C157.966 62.6373 147.822 51.1821 140.354 39.0598H146.771C153.863 48.8453 172.012 67.6232 172.012 67.6232Z" fill="#2B3797"/>
<path d="M181.176 10.8897L185.198 2.50244L186.346 11.0294L194.549 8.15926L188.816 15.509L195.034 20.3262L186.736 20.9681L186.278 29.8344L181.664 23.2816L174.883 29.5338L177.425 20.7237L169.428 19.6397L177.212 15.2046L174.018 7.61627L181.176 10.8897Z" fill="#2B3797"/>
<path d="M198.227 53.368C196.744 59.2769 192.059 62.9887 186.479 62.9887C180.646 62.9887 178.016 59.6066 179.583 53.368C181.067 47.4591 185.806 43.4914 191.384 43.4914C196.965 43.4914 199.713 47.4591 198.227 53.368ZM192.284 38.649C182.069 38.649 173.857 44.5618 171.832 53.368C169.809 62.1761 175.311 68.087 185.525 68.087C195.741 68.087 203.956 62.1761 205.977 53.368C208.001 44.5618 202.5 38.649 192.284 38.649Z" fill="#2B3797"/>
<path d="M133.728 65.1884C150.242 56.0157 164.587 41.9192 174.762 29.7329C167.447 52.6278 149.839 64.9498 133.728 65.1884Z" fill="#ED1C24"/>
<path d="M127.191 43.0429C130.354 43.0429 132.076 44.1909 132.076 46.3842C132.076 52.2059 120.725 51.8219 115.72 50.8018C117.481 46.4443 121.456 43.0429 127.191 43.0429ZM138.879 46.0662C138.879 41.8444 135.514 38.7416 127.879 38.7416C115.497 38.7416 107.451 46.7798 107.451 56.7301C107.451 63.1568 112.786 68.4976 122.531 68.4976C129.245 68.4976 133.728 65.1892 133.728 65.1892C125.184 66.1045 114.69 65.1892 114.69 56.0475C114.69 55.6849 114.71 55.3222 114.739 54.9596C126.398 57.3798 138.879 54.4515 138.879 46.0662Z" fill="#2B3797"/>
</svg>
