<svg width="245" height="49" viewBox="0 0 245 49" fill="none" xmlns="http://www.w3.org/2000/svg">
<path d="M242.314 13.5735C240.277 10.0287 237.289 6.69246 233.918 4.5705C226.337 -0.421611 215.077 -0.826377 207.15 3.38073C199.026 7.52652 193.42 16.2106 194.013 25.6429C194.507 35.7497 201.915 44.5442 211.496 47.304C221.67 50.5053 233.177 47.0954 239.746 39.2822C245.413 32.4135 246.846 21.5829 242.314 13.5735ZM234.511 37.516C232.054 39.5889 229.412 41.7599 226.016 41.073C224.164 40.6437 222.831 39.3558 222.361 37.6141C221.954 36.0932 222.065 34.6336 222.263 33.0636L236.067 33.039L235.696 32.5729C228.732 24.404 223.201 15.1803 219.497 5.46589C215.521 15.3029 209.94 25.0173 203.298 33.0881L216.83 33.0636C216.756 34.8666 217.176 37.0622 216.336 38.6076C215.496 40.3003 213.521 41.1343 211.694 41.1834C206.236 40.6805 202.606 35.9092 200.532 31.3954C198.112 25.8514 199.001 18.2344 202.804 13.4876C208.088 6.50847 217.423 3.68738 226.115 6.36128C231.424 8.01714 236.128 12.1261 238.462 17.339C241.215 23.803 239.586 32.4503 234.511 37.516Z" fill="#26834E"/>
<path d="M78.4443 11.0222C82.9139 11.0222 86.5439 15.6341 86.4204 20.4545C86.3093 25.1032 82.2595 29.3961 78.543 29.3961H62.9364C60.6522 29.114 58.8989 27.4582 57.9976 25.5325C57.6889 24.7842 57.6766 23.7294 57.5901 22.9444L58.3927 22.9567H77.259C78.0739 22.9567 78.8517 22.2085 79.2345 21.2763C79.5925 20.4177 79.5678 19.7185 79.1357 18.8967C78.6665 17.9891 77.8022 17.4126 76.9626 17.4126H55.9233L55.7257 17.6089V36.2649C55.7257 38.0066 54.207 39.2822 52.4291 39.2454C50.861 39.2209 49.4041 37.9453 49.4041 36.3017V16.3455C49.4041 14.6896 50.0338 13.7207 51.2067 12.6045C52.3056 11.5864 53.7379 11.0222 55.2318 10.9977L78.4443 11.0222Z" fill="#CD2528"/>
<path d="M132.574 35.0383C128.882 29.7396 121.622 20.3319 118.017 15.3275C115.436 12.0035 115.177 11.059 111.436 11.01C109.053 10.9977 107.682 12.3592 106.398 14.2726L91.1864 34.4496C90.5814 35.4308 90.5197 36.4489 90.9889 37.516C91.2852 38.3378 92.1495 39.1105 93.0632 39.2945C94.8165 39.6134 95.9524 38.7671 96.8414 37.5528L99.6812 33.7014L123.684 33.7505C125.116 35.5167 126.351 37.5037 128.129 39.086C129.265 39.6134 130.894 39.4172 131.882 38.4973C132.487 37.5283 133.03 36.2404 132.574 35.0383ZM104.682 27.2251L111.621 18.5165C111.621 18.5165 111.806 18.2222 111.991 18.2344C112.164 18.2467 112.312 18.5533 112.312 18.5533C114.386 21.4358 116.671 24.2201 118.646 27.2251H104.682Z" fill="#CD2528"/>
<path d="M171.985 11.0222C175.282 11.0222 178.369 13.5244 179.616 17.1428C180.949 21.0064 179.715 24.4408 176.727 27.2251C176.06 27.8507 174.85 28.6111 174.85 28.6111L178.974 34.5232C179.357 35.0628 179.468 36.1422 179.122 37.0621C178.801 37.9207 178.369 38.4236 177.517 38.7916C176.369 39.2822 174.85 38.8284 174.356 38.2274C174.356 38.2274 170.417 33.4193 168.232 30.684C167.849 30.2793 167.652 29.9113 167.244 29.4943L156.724 29.5433C154.119 29.5556 151.045 26.4278 151.045 23.9502V22.9935L170.627 22.9689C171.356 22.9689 172.183 22.2821 172.578 21.3867C172.936 20.5771 172.936 19.9271 172.578 19.1175C172.146 18.1485 171.183 17.4617 170.43 17.4617L149.131 17.523L149.069 17.7315V36.731C149.069 37.9943 147.328 39.6257 145.612 39.4662C144.032 39.319 142.735 37.7122 142.748 36.5838L142.772 16.4436C142.772 14.3462 143.39 13.5244 144.711 12.3714C145.995 11.243 147.168 10.9977 148.872 10.9977L171.985 11.0222Z" fill="#CD2528"/>
<path d="M35.1803 14.0641C35.5878 14.8982 35.7977 15.7936 35.773 16.9097L9.63431 16.922C8.83175 16.922 7.5847 17.3758 7.12786 18.4184C6.5599 19.7186 7.21429 21.215 8.51073 21.7792C9.0293 22.0122 9.94298 21.9754 9.94298 21.9754H28.9574C32.3652 22.2207 35.3902 24.404 36.5632 28.0101C37.588 31.1501 37.0571 33.7627 34.9828 36.3262C32.5874 39.2822 29.3031 39.319 25.6978 39.319L4.65845 39.2945C2.36191 39.2945 0.448118 37.0376 0.127095 34.7317L0.114748 33.5665L27.8956 33.591C28.8216 33.591 30.0193 32.3031 30.0439 30.9907C30.081 29.5679 29.0932 28.2186 27.6857 28.2186H7.65878C4.20161 28.2186 0.670364 24.9682 0.102401 20.8961C-0.354439 17.6089 0.719752 15.1189 3.27559 12.997C5.20172 11.3902 6.67102 10.9364 9.35033 10.9241L27.8585 10.8996C30.723 10.8505 33.8345 11.3411 35.1803 14.0641Z" fill="#CD2528"/>
</svg>
