<svg width="215" height="68" viewBox="0 0 215 68" fill="none" xmlns="http://www.w3.org/2000/svg">
<g clip-path="url(#clip0_3266_16619)">
<path d="M64.8002 0.124512C62.0002 0.124512 59.1002 0.124512 56.3002 0.124512C55.4002 0.124512 55.4002 0.524512 55.3002 1.22451C54.6002 10.5245 52.2002 19.3245 47.7002 27.5245C40.0002 41.8245 27.9002 50.3245 12.0002 53.6245C8.50016 54.4245 5.00016 54.9245 1.40016 55.0245C0.300157 55.0245 -0.0998427 55.4245 0.000157335 56.5245C0.100157 57.8245 0.000157335 59.2245 0.000157335 60.5245C0.000157335 62.1245 0.000157335 63.6245 0.000157335 65.2245C0.000157335 65.8245 0.200157 66.0245 0.800157 66.0245C1.20016 65.9245 1.60016 66.0245 2.00016 66.0245C8.50016 65.5245 14.9002 64.3245 21.1002 62.2245C37.1002 56.8245 49.6002 47.2245 57.5002 32.2245C62.6002 22.5245 64.9002 12.0245 65.7002 1.12451C65.8002 0.224512 65.5002 0.124512 64.8002 0.124512Z" fill="#1D1D1B"/>
<path d="M120.6 41.9246C120.7 41.0246 120.4 40.7246 119.5 40.7246C114.2 40.7246 109 40.7246 103.7 40.7246C102.7 40.7246 102.5 41.1246 102.5 42.0246C102.5 45.9246 102.5 49.9246 102.5 53.8246C102.5 57.8246 102.5 61.9246 102.5 65.9246C102.5 66.7246 102.7 67.0246 103.5 66.9246C104.8 66.8246 106.1 66.8246 107.3 66.9246C108 66.9246 108.2 66.7246 108.2 65.9246C108.2 63.6246 108.2 61.3246 108.2 59.0246C108.2 57.8246 107.8 56.1246 108.4 55.4246C109.1 54.6246 110.8 55.2246 112.1 55.1246C113.5 55.0246 115.5 55.7246 116.3 54.8246C117 53.9246 116.4 52.0246 116.5 50.5246C116.6 49.6246 116.2 49.4246 115.4 49.5246C113.3 49.6246 111.3 49.5246 109.2 49.5246C108.4 49.5246 108 49.3246 108.1 48.5246C108.1 48.1246 108.2 47.8246 108.1 47.4246C107.9 46.4246 108.3 46.1246 109.4 46.1246C112.7 46.2246 116.1 46.1246 119.4 46.1246C120.2 46.1246 120.7 46.0246 120.6 45.0246C120.5 44.1246 120.5 43.0246 120.6 41.9246Z" fill="#1D1D1B"/>
<path d="M102.4 20.8246C102.1 18.6246 100.9 16.8246 98.9 15.6246C97 14.5246 95 13.8246 92.9 13.5246C90.9 13.2246 88.9 12.9246 87.1 11.9246C85.8 11.2246 85.3 9.92458 85.7 8.52458C86.1 7.22458 87.1 6.82458 88.4 6.92458C89.1 6.92458 89.9 7.02458 90.6 7.12458C93.3 7.52458 95.8 8.32458 98.1 9.52458C98.9 9.92458 99.2 9.72458 99.5 9.02458C100 7.92458 100.6 6.82458 101.1 5.72458C102 3.92458 102 3.82458 100.1 3.02458C95.9 1.32458 91.6 -0.0754234 87 0.0245766C82.5 0.124577 79.6 2.42458 78.7 6.72458C78.4 8.02458 78.3 9.42458 78.3 10.8246C78.3 12.7246 79 14.4246 80.4 15.7246C82.2 17.5246 84.5 18.3246 86.9 18.7246C89.1 19.1246 91.3 19.4246 93.4 20.3246C95.2 21.1246 95.7 22.3246 95.1 24.2246C94.7 25.6246 93.5 26.5246 91.9 26.6246C90.4 26.7246 88.9 26.5246 87.5 25.9246C85.1 25.0246 83 23.5246 80.9 21.8246C80 23.7246 79.3 25.5246 78.3 27.2246C77.8 28.1246 78.1 28.6246 78.8 29.1246C83 32.4246 87.8 34.1246 93 33.3246C100.1 32.3246 103.4 28.1246 102.4 20.8246Z" fill="#1D1D1B"/>
<path d="M118.5 33.5247C120.6 33.5247 122.6 33.5247 124.7 33.5247C129.4 33.5247 134.1 29.4246 134.3 24.8246C134.8 17.0246 134.4 9.22465 134.5 1.32465C134.5 0.624651 134.2 0.624651 133.7 0.624651C131.8 0.624651 129.8 0.724651 127.9 0.624651C126.7 0.524651 126.4 0.824651 126.4 2.12465C126.5 9.12465 126.4 16.1247 126.4 23.1247C126.4 25.5247 125.3 26.6246 122.9 26.8246C122.1 26.8246 121.3 26.8246 120.6 26.8246C117.8 26.8246 116.7 25.8247 116.7 22.9247C116.7 15.9247 116.7 8.92465 116.7 1.92465C116.7 1.02465 116.5 0.624651 115.5 0.724651C113.6 0.824651 111.7 0.824651 109.7 0.724651C108.8 0.724651 108.6 1.02465 108.6 1.92465C108.6 5.72465 108.6 9.42465 108.6 13.2247C108.6 16.7247 108.6 20.2246 108.6 23.8246C108.6 29.8246 112.2 33.5247 118.5 33.5247Z" fill="#1D1D1B"/>
<path d="M156 26.4246C154.7 26.9246 153.4 26.8246 152.1 26.5246C149 25.8246 146.5 24.0246 143.9 22.0246C143 23.8246 142.3 25.7246 141.4 27.4246C140.9 28.3246 141.1 28.7246 141.8 29.3246C145.9 32.6246 150.6 34.1246 155.9 33.6246C160.9 33.1246 164.5 30.1246 165.5 25.6246C166.5 21.3246 164.9 17.3246 161.5 15.4246C159.8 14.4246 157.9 13.8246 155.9 13.6246C154.2 13.3246 152.5 13.1246 150.8 12.4246C149.1 11.6246 148.3 10.4246 148.6 8.92463C148.9 7.52463 149.9 6.92464 151.9 7.02464C155.1 7.22464 158.1 8.12464 160.9 9.52464C161.6 9.92464 162 9.92464 162.4 9.02464C163 7.62464 163.7 6.22464 164.5 4.82464C165 4.02464 164.7 3.72464 164 3.42464C160.4 1.82464 156.8 0.524635 152.9 0.124635C147.1 -0.475365 142.3 1.12464 141.4 7.52464C141 10.0246 140.7 12.6246 142.5 14.9246C144.4 17.2246 146.9 18.2246 149.7 18.7246C151.8 19.1246 154 19.3246 155.9 20.2246C157.1 20.8246 158.1 21.4246 158.1 23.0246C158.2 24.7246 157.6 25.8246 156 26.4246Z" fill="#1D1D1B"/>
<path d="M214.1 17.2245C214.1 12.0245 214.1 6.82451 214.1 1.72451C214.1 0.924512 214 0.624512 213.1 0.624512C211.1 0.724512 209.1 0.724512 207 0.624512C206.2 0.624512 206 0.824512 206 1.62451C206 11.9245 206 22.2245 206 32.5245C206 33.4245 206.3 33.6245 207.1 33.5245C209 33.4245 211 33.4245 212.9 33.5245C213.9 33.5245 214.1 33.3245 214.1 32.3245C214 27.2245 214.1 22.2245 214.1 17.2245Z" fill="#1D1D1B"/>
<path d="M213.6 53.5248C213.6 49.5248 213.6 45.4248 213.6 41.4248C213.6 40.6248 213.5 40.2248 212.6 40.3248C211.3 40.4248 209.9 40.4248 208.6 40.3248C207.8 40.3248 207.6 40.5248 207.6 41.3248C207.6 43.6248 207.6 46.0248 207.6 48.3248C207.6 49.4248 207.4 49.8248 206.2 49.8248C204.4 49.7248 202.6 49.7248 200.8 49.8248C199.9 49.8248 199.5 49.6248 199.6 48.6248C199.7 46.2248 199.6 43.7248 199.6 41.3248C199.6 40.5248 199.4 40.3248 198.6 40.3248C197.4 40.4248 196.1 40.4248 194.9 40.3248C193.9 40.2248 193.7 40.5248 193.7 41.5248C193.7 49.4248 193.7 57.3248 193.7 65.3248C193.7 66.2248 193.9 66.6248 194.9 66.5248C196.2 66.4248 197.5 66.4248 198.7 66.5248C199.6 66.6248 199.9 66.3248 199.9 65.4248C199.8 62.4248 199.9 59.4248 199.9 56.3248C199.9 55.3248 200.2 55.1248 201.1 55.1248C202.9 55.2248 204.7 55.2248 206.5 55.1248C207.4 55.1248 207.8 55.3248 207.7 56.3248C207.6 59.4248 207.7 62.4248 207.7 65.5248C207.7 66.3248 207.9 66.5248 208.7 66.5248C210 66.4248 211.3 66.4248 212.5 66.5248C213.4 66.6248 213.6 66.3248 213.6 65.4248C213.6 61.5248 213.6 57.5248 213.6 53.5248Z" fill="#1D1D1B"/>
<path d="M197.2 32.6248C197.2 22.2248 197.2 11.9248 197.2 1.5248C197.2 0.724805 196.9 0.524805 196.1 0.524805C194.3 0.524805 192.5 0.624805 190.7 0.524805C189.7 0.424805 189.5 0.824805 189.5 1.7248C189.6 4.9248 189.5 8.0248 189.5 11.2248C189.5 12.0248 189.4 12.4248 188.4 12.4248C185.8 12.3248 183.2 12.3248 180.6 12.4248C179.8 12.4248 179.5 12.2248 179.5 11.3248C179.6 8.02481 179.5 4.8248 179.5 1.5248C179.5 0.724805 179.3 0.424805 178.4 0.424805C176.7 0.524805 174.9 0.524805 173.2 0.424805C172.2 0.424805 172 0.624805 172 1.6248C172.1 6.7248 172 11.8248 172 16.9248C172 21.9248 172 27.0248 172 32.0248C172 33.0248 172.1 33.5248 173.3 33.4248C175 33.3248 176.8 33.3248 178.5 33.4248C179.5 33.4248 179.7 33.2248 179.7 32.2248C179.6 28.2248 179.7 24.1248 179.7 20.1248C179.7 19.3248 179.9 19.1248 180.7 19.1248C183.3 19.2248 185.9 19.2248 188.5 19.1248C189.4 19.1248 189.6 19.4248 189.6 20.3248C189.6 24.3248 189.6 28.4248 189.6 32.4248C189.6 33.3248 189.8 33.5248 190.7 33.5248C192.5 33.4248 194.3 33.5248 196.1 33.5248C197 33.5248 197.2 33.3248 197.2 32.6248Z" fill="#1D1D1B"/>
<path d="M185.5 51.7245C184.5 51.3245 183.5 51.0245 182.5 50.9245C181.2 50.7245 180 50.5245 178.8 50.0245C177.3 49.4245 176.6 48.4245 177.1 47.0245C177.5 45.7245 178.7 45.7245 179.8 45.8245C182.2 46.0245 184.5 46.7245 186.6 47.7245C187.2 48.0245 187.5 48.0245 187.8 47.3245C188.3 46.2245 188.9 45.1245 189.5 44.0245C189.8 43.5245 189.7 43.3245 189.2 43.1245C185.9 41.7245 182.5 40.5245 179.4 40.4245C174.1 40.3245 171.7 42.6245 171.2 47.4245C170.8 51.6245 173 53.5245 176 54.5245C176.6 54.7245 177.3 54.9245 178 55.0245C179.6 55.2245 181.2 55.5245 182.8 56.2245C183.8 56.6245 184.4 57.2245 184.4 58.4245C184.3 59.5245 183.9 60.4245 182.8 60.9245C181.8 61.4245 180.8 61.3245 179.7 61.1245C177.5 60.6245 175.6 59.5245 173.9 58.1245C173.2 57.5245 173 57.7245 172.7 58.4245C172.2 59.5245 171.7 60.7245 171.2 61.8245C170.9 62.3245 170.9 62.7245 171.4 63.1245C174.4 65.7245 180.5 68.1245 185.8 65.6245C189 64.1245 190.3 61.6245 190.3 58.1245C190.1 54.8245 188.4 52.8245 185.5 51.7245Z" fill="#1D1D1B"/>
<path d="M166.1 60.8247C162.7 60.9247 159.3 60.8247 155.9 60.8247C155.1 60.8247 154.9 60.6247 154.9 59.8247C155 58.4247 155 57.1247 154.9 55.7247C154.9 55.0247 155.1 54.8247 155.8 54.8247C158 54.8247 160.1 54.8247 162.3 54.8247C163 54.8247 163.3 54.6247 163.2 53.9247C163.1 52.7247 163.1 51.4247 163.2 50.2247C163.2 49.4247 163 49.2247 162.2 49.2247C160.5 49.3247 158.8 49.2247 157.1 49.2247C154.8 49.2247 154.8 49.2247 154.8 46.9247C154.8 46.1247 155 45.8247 155.9 45.8247C159.3 45.9247 162.8 45.8247 166.2 45.8247C167 45.8247 167.3 45.6247 167.3 44.7247C167.2 43.6247 167.2 42.4247 167.3 41.3247C167.4 40.4247 167 40.2247 166.2 40.3247C160.9 40.3247 155.6 40.3247 150.3 40.3247C149.5 40.3247 149.2 40.5247 149.2 41.4247C149.2 45.4247 149.2 49.4247 149.2 53.4247C149.2 57.4247 149.2 61.5247 149.2 65.5247C149.2 66.2247 149.3 66.6247 150.1 66.6247C155.5 66.6247 160.9 66.6247 166.3 66.6247C167 66.6247 167.3 66.4247 167.2 65.7247C167.1 64.5247 167.1 63.3247 167.2 62.1247C167.4 61.0247 167 60.8247 166.1 60.8247Z" fill="#1D1D1B"/>
<path d="M0.100351 5.32483C0.100351 8.02483 0.100351 10.7248 0.100351 13.5248C0.100351 17.7248 0.100351 21.8248 0.000350764 26.0248C0.000350764 26.1248 0.000350764 26.1248 0.000350764 26.2248C0.000350764 26.3248 0.000350764 26.3248 0.000350764 26.4248C0.000350764 26.7248 0.100351 26.9248 0.700351 26.9248C3.70035 26.7248 6.60035 26.4248 9.40035 25.3248C11.1004 24.8248 12.6004 24.2248 14.1004 23.3248C14.5004 23.0248 14.9004 22.8248 15.4004 22.5248C15.7004 22.3248 16.0004 22.1248 16.3004 21.9248C16.6004 21.7248 16.9004 21.4248 17.2004 21.2248C19.2004 19.6248 20.8004 17.7248 22.2004 15.8248C22.7004 15.0248 23.2004 14.2248 23.6004 13.4248C24.0004 12.7248 24.3004 12.0248 24.6004 11.2248C24.7004 10.9248 24.8004 10.6248 24.9004 10.3248C25.8004 7.92483 26.4004 5.32483 26.7004 2.62483C26.7004 2.52483 26.7004 2.42483 26.7004 2.22483C26.8004 1.82483 26.8004 1.32483 26.8004 0.924829C26.8004 0.424829 26.6004 0.324829 26.2004 0.324829C17.6004 0.324829 9.00035 0.324829 0.400351 0.324829C-0.0996492 0.124829 0.000350764 0.524829 0.000350764 0.824829C0.000350764 2.32483 0.000350766 3.82483 0.100351 5.32483Z" fill="#1D1D1B"/>
<path d="M142.7 51.0244C142.7 49.4244 142.7 47.7244 142.7 46.1244C142.7 43.0244 140.2 40.5244 137.1 40.5244C132.7 40.5244 128.3 40.5244 123.9 40.5244C123 40.5244 122.8 40.7244 122.8 41.6244C122.8 49.5244 122.8 57.4244 122.8 65.4244C122.8 66.2244 122.9 66.6244 123.8 66.5244C125.2 66.4244 126.6 66.4244 127.9 66.5244C128.8 66.5244 129 66.2244 128.9 65.4244C128.8 63.1244 128.9 60.8244 128.9 58.5244C128.9 57.5244 129.3 57.5244 130 57.5244C130.6 57.5244 130.9 58.0244 131.1 58.4244C133.2 61.2244 135.2 63.9244 137.2 66.7244C137.5 67.1244 137.6 67.7244 138.4 67.3244C140 66.5244 141.7 65.8244 143.5 65.0244C141.6 62.4244 139.7 59.9244 137.9 57.3244C141 56.3244 142.6 54.1244 142.7 51.0244ZM135.1 52.0244C133.3 52.0244 131.5 52.0244 129.8 52.1244C129.2 52.1244 129 51.9244 129 51.3244C129 49.7244 129 48.2244 129 46.6244C129 46.0244 129.2 45.8244 129.8 45.9244C130.7 45.9244 131.5 45.9244 132.4 45.9244C133.3 45.9244 134.1 45.9244 135 45.9244C136.1 45.9244 136.7 46.4244 136.7 47.6244C136.7 48.5244 136.7 49.4244 136.7 50.3244C136.8 51.5244 136.2 52.0244 135.1 52.0244Z" fill="#1D1D1B"/>
</g>
<defs>
<clipPath id="clip0_3266_16619">
<rect width="214.1" height="67.2" fill="white" transform="translate(0 0.0244141)"/>
</clipPath>
</defs>
</svg>
